<svg width="1280" height="735" viewBox="0 0 1280 735" fill="none" xmlns="http://www.w3.org/2000/svg">
<path d="M1280 734.576H1096.59V686.882C1096.59 674.89 1093.72 663.382 1088.56 652.939C1080.82 637.267 1067.95 623.968 1051.75 614.539C1035.59 605.116 1016 599.566 995.073 599.566C995.056 599.566 995.056 599.566 995.039 599.566H995.022C981.078 599.566 967.698 602.028 955.564 606.466C937.337 613.128 921.874 624.193 910.901 638.114C899.944 652.023 893.493 668.882 893.493 686.882H927.626C927.626 678.899 929.52 671.338 932.933 664.414C938.053 654.038 946.672 645.12 957.458 638.842C968.261 632.564 981.13 628.92 995.039 628.916C1004.32 628.918 1013.11 630.54 1021.17 633.479C1033.23 637.884 1043.61 645.29 1050.92 654.568C1058.2 663.856 1062.45 674.918 1062.45 686.882V734.576H792.202C797.691 729.796 802.664 724.579 807.067 718.993C820.669 701.679 828.64 680.706 828.64 658.266C828.64 643.312 825.107 628.99 818.707 615.992C809.115 596.484 793.117 579.932 772.97 568.226C752.845 556.524 728.466 549.671 702.383 549.671C702.369 549.671 702.36 549.671 702.347 549.671V579.021C715.118 579.022 727.198 581.238 738.214 585.243C754.731 591.246 768.836 601.314 778.778 613.969C788.716 626.634 794.5 641.802 794.506 658.266C794.505 669.249 791.928 679.634 787.27 689.108C780.288 703.31 768.581 715.438 753.862 723.987C745.803 728.662 736.874 732.268 727.303 734.576H204.25C174.782 723.623 149.657 705.552 131.865 682.902C113.829 659.932 103.318 632.339 103.311 602.504C103.313 582.606 107.991 563.726 116.447 546.529C129.129 520.739 150.36 498.75 177.063 483.241C203.777 467.732 235.864 458.694 270.564 458.688V429.338C270.558 429.338 270.552 429.338 270.547 429.338C242.795 429.338 216.268 434.185 192.17 442.952C156.007 456.107 125.293 478.045 103.581 505.675C81.8685 533.295 69.1709 566.691 69.1777 602.504C69.1743 626.372 74.8131 649.186 85.0104 669.912C97.3905 695.074 116.457 717.168 140.31 734.576H0V0.823853H1280V27.8495H940.852H940.835C926.892 27.8495 913.512 30.3134 901.377 34.7511C883.15 41.4136 867.688 52.477 856.714 66.3978C845.757 80.3068 839.306 97.167 839.306 115.166C839.306 127.16 842.173 138.667 847.328 149.111C855.076 164.782 867.944 178.081 884.14 187.511C900.302 196.932 919.895 202.482 940.818 202.482C940.835 202.482 940.835 202.482 940.852 202.482V173.132C931.568 173.131 922.779 171.508 914.724 168.57C902.657 164.166 892.281 156.758 884.976 147.48C877.689 138.194 873.439 127.132 873.439 115.166C873.439 107.183 875.334 99.622 878.747 92.6998C883.867 82.3231 892.486 73.4036 903.272 67.1271C914.075 60.8477 926.943 57.2053 940.852 57.1995H1280V631.239H1174.1V661.813H1280V734.576ZM279.237 645.425V675.997H524.996V645.425H279.237ZM582.169 443.277V605.374H617.725V443.277H582.169ZM1218.87 348.134C1201.49 348.134 1184.84 351.174 1169.73 356.673C1147.05 364.926 1127.8 378.677 1114.18 396.002C1100.56 413.316 1092.59 434.289 1092.61 456.729C1092.61 471.681 1096.14 486.003 1102.54 499.004C1112.13 518.511 1128.12 535.063 1148.28 546.769C1168.4 558.471 1192.77 565.324 1218.87 565.324C1218.87 565.324 1218.88 565.324 1218.9 565.324V535.974C1206.12 535.971 1194.05 533.757 1183.03 529.754C1166.51 523.749 1152.41 513.68 1142.46 501.026C1132.53 488.36 1126.74 473.192 1126.74 456.729C1126.74 445.746 1129.32 435.359 1133.98 425.888C1140.96 411.686 1152.67 399.555 1167.38 391.008C1182.11 382.462 1199.75 377.488 1218.9 377.484V348.134C1218.88 348.134 1218.88 348.134 1218.87 348.134ZM861.783 532.182V562.756H932.746V532.182H861.783ZM340.393 480.82V511.394H411.361V480.82H340.393ZM0 429.068V458.49C14.6329 457.739 28.6463 454.837 41.5401 450.146C64.2267 441.891 83.4762 428.141 97.0902 410.817C110.706 393.503 118.676 372.531 118.669 350.09C118.671 335.136 115.135 320.815 108.738 307.816C99.1382 288.308 83.1468 271.756 62.9997 260.05C44.8391 249.491 23.214 242.88 0 241.688V271.112C9.96689 271.81 19.444 273.868 28.2436 277.067C44.7606 283.07 58.8661 293.138 68.8074 305.793C78.7453 318.459 84.5292 333.627 84.536 350.09C84.5343 361.073 81.9572 371.458 77.3014 380.931C70.3178 395.134 58.6101 407.262 43.8919 415.811C31.1397 423.21 16.2047 427.931 0 429.068ZM329.568 0.823853C331.153 5.72821 331.998 10.8909 332.002 16.2327V349.356H366.135V16.2327C366.135 10.9878 365.589 5.83539 364.541 0.823853H329.568ZM726.24 157.847C726.237 181.716 731.875 204.53 742.073 225.255C757.373 256.35 782.884 282.761 815.021 301.43C847.123 320.094 885.949 331.012 927.592 331.012C927.609 331.012 927.609 331.012 927.626 331.012H927.643C955.393 331.012 981.915 326.165 1006.01 317.398C1042.18 304.244 1072.9 282.304 1094.61 254.676C1116.31 227.056 1129.01 193.66 1129.01 157.847H1094.88C1094.88 177.745 1090.2 196.624 1081.74 213.822C1069.06 239.612 1047.83 261.601 1021.13 277.109C994.407 292.618 962.322 301.656 927.626 301.662C904.484 301.661 882.536 297.638 862.534 290.367C832.531 279.462 806.965 261.206 788.927 238.246C770.891 215.275 760.38 187.683 760.373 157.847H726.24ZM1198.98 119.202V330.522H1234.53V119.202H1198.98ZM0 149.165H209.834V118.591H0V149.165ZM529.406 0.823853V116.267H564.961V0.823853H529.406ZM664.942 48.641V79.2121H777.44V48.641H664.942ZM126.847 0.823853V57.0161H162.402V0.823853H126.847ZM164.636 0.823853C163.588 5.83392 163.041 10.9834 163.042 16.2327H197.176C197.177 10.8851 198.024 5.72675 199.611 0.823853H164.636Z" fill="black"/>
</svg>
