<svg width="24" height="25" viewBox="0 0 24 25" fill="none" xmlns="http://www.w3.org/2000/svg">
<circle cx="12" cy="12.8853" r="12" fill="#0011FF"/>
<path d="M9.6001 7.48547C7.9435 7.48547 6.6001 8.82887 6.6001 10.4855V15.2855C6.6001 16.9421 7.9435 18.2855 9.6001 18.2855H14.4001C16.0567 18.2855 17.4001 16.9421 17.4001 15.2855V10.4855C17.4001 8.82887 16.0567 7.48547 14.4001 7.48547H9.6001ZM15.6001 8.68547C15.9313 8.68547 16.2001 8.95427 16.2001 9.28547C16.2001 9.61667 15.9313 9.88547 15.6001 9.88547C15.2689 9.88547 15.0001 9.61667 15.0001 9.28547C15.0001 8.95427 15.2689 8.68547 15.6001 8.68547ZM12.0001 9.88547C13.6567 9.88547 15.0001 11.2289 15.0001 12.8855C15.0001 14.5421 13.6567 15.8855 12.0001 15.8855C10.3435 15.8855 9.0001 14.5421 9.0001 12.8855C9.0001 11.2289 10.3435 9.88547 12.0001 9.88547ZM12.0001 11.0855C11.5227 11.0855 11.0649 11.2751 10.7273 11.6127C10.3897 11.9502 10.2001 12.4081 10.2001 12.8855C10.2001 13.3629 10.3897 13.8207 10.7273 14.1583C11.0649 14.4958 11.5227 14.6855 12.0001 14.6855C12.4775 14.6855 12.9353 14.4958 13.2729 14.1583C13.6105 13.8207 13.8001 13.3629 13.8001 12.8855C13.8001 12.4081 13.6105 11.9502 13.2729 11.6127C12.9353 11.2751 12.4775 11.0855 12.0001 11.0855Z" fill="white"/>
</svg>
