<svg width="21" height="26" viewBox="0 0 21 26" fill="none" xmlns="http://www.w3.org/2000/svg">
<path d="M1 5.5V8.125M1 16V13.375" stroke="#0011FF" stroke-width="1.5" stroke-linecap="round"/>
<path d="M19.5 5.5V8.125M19.5 16V13.375" stroke="#0011FF" stroke-width="1.5" stroke-linecap="round"/>
<circle cx="6.25" cy="6.25" r="2.25" stroke="#0011FF" stroke-width="1.5"/>
<path d="M8.5 14.0714C8.5 15.4916 7.49264 20.5 6.25 20.5C5.00736 20.5 4 15.4916 4 14.0714C4 12.6513 5.00736 11.5 6.25 11.5C7.49264 11.5 8.5 12.6513 8.5 14.0714Z" stroke="#0011FF" stroke-width="1.5"/>
<circle cx="13" cy="4" r="3" stroke="#FFB700" stroke-width="1.5"/>
<path d="M15.675 13C15.675 14.6569 14.5165 20.5 13.0875 20.5C11.6585 20.5 10.5 14.6569 10.5 13C10.5 11.3431 11.6585 10 13.0875 10C14.5165 10 15.675 11.3431 15.675 13Z" stroke="#FFB700" stroke-width="1.5"/>
<path d="M19.5 16C19.5 20.9706 16.1348 25 10.75 25C5.36522 25 1 20.9706 1 16" stroke="#0011FF" stroke-width="1.5"/>
</svg>
