<svg width="27" height="22" viewBox="0 0 27 22" fill="none" xmlns="http://www.w3.org/2000/svg">
<path d="M11.2949 15.826H15.6293C15.6794 15.826 15.728 15.843 15.7671 15.8743L22.7012 21.4216C22.8457 21.5372 23.0596 21.4343 23.0596 21.2494V16.0466C23.0596 15.9247 23.1584 15.826 23.2802 15.826H25.7802C25.902 15.826 26.0008 15.7272 26.0008 15.6054V4.28187C26.0008 4.16004 25.902 4.06128 25.7802 4.06128H21.589" stroke="#0011FF" stroke-linecap="round"/>
<path d="M1 2.59046V11.414C1 12.2262 1.71327 12.8846 2.59314 12.8846H4.58456L4.21442 18.3512C4.20493 18.4914 4.37624 18.5665 4.47294 18.4645L9.76225 12.8846H10.5588H18.5245C19.4044 12.8846 20.1176 12.2262 20.1176 11.414V2.59046C20.1176 1.77828 19.4044 1.11987 18.5245 1.11987H2.59314C1.71327 1.11987 1 1.77828 1 2.59046Z" stroke="#0011FF" stroke-linecap="round" stroke-linejoin="round"/>
<circle cx="6.8827" cy="7.00208" r="1.47059" fill="#FFB700"/>
<circle cx="11.2948" cy="7.00208" r="1.47059" fill="#FFB700"/>
<circle cx="15.7069" cy="7.00208" r="1.47059" fill="#FFB700"/>
</svg>
