<svg width="24" height="25" viewBox="0 0 24 25" fill="none" xmlns="http://www.w3.org/2000/svg">
<circle cx="12" cy="12.8853" r="12" fill="#0011FF"/>
<path d="M8.68916 7.48547C8.03261 7.48547 7.5 8.0172 7.5 8.67375C7.5 9.3303 8.03218 9.87434 8.68828 9.87434C9.34438 9.87434 9.87744 9.3303 9.87744 8.67375C9.87744 8.01765 9.34571 7.48547 8.68916 7.48547ZM14.4908 10.6355C13.4923 10.6355 12.9209 11.1577 12.6469 11.677H12.6179V10.7752H10.65V17.3855H12.7005V14.1133C12.7005 13.2511 12.7656 12.4179 13.8325 12.4179C14.8842 12.4179 14.8995 13.401 14.8995 14.1678V17.3855H16.9474H16.95V13.7547C16.95 11.9781 16.568 10.6355 14.4908 10.6355ZM7.66348 10.7752V17.3855H9.71572V10.7752H7.66348Z" fill="white"/>
</svg>
