<svg width="117" height="43" viewBox="0 0 117 43" fill="none" xmlns="http://www.w3.org/2000/svg">
<path d="M47.428 9.2174L46.48 9.0614V8.3174H49.204L52.78 13.7174L53.452 15.0854V9.2174L52.42 9.0614V8.3174H55.396V9.0614L54.472 9.2174V17.2334H53.02L49.288 11.5574L48.448 9.9734V16.3934L49.66 16.5134V17.2334H46.48V16.5134L47.428 16.3934V9.2174ZM56.1728 13.9094C56.1728 13.1574 56.3208 12.5174 56.6168 11.9894C56.9208 11.4614 57.3248 11.0654 57.8288 10.8014C58.3328 10.5294 58.8808 10.3934 59.4728 10.3934C60.4808 10.3934 61.2568 10.7054 61.8008 11.3294C62.3528 11.9454 62.6288 12.7854 62.6288 13.8494C62.6288 14.6094 62.4768 15.2574 62.1728 15.7934C61.8768 16.3214 61.4768 16.7174 60.9728 16.9814C60.4768 17.2374 59.9288 17.3654 59.3288 17.3654C58.3288 17.3654 57.5528 17.0574 57.0008 16.4414C56.4488 15.8174 56.1728 14.9734 56.1728 13.9094ZM59.4248 16.5854C60.3288 16.5854 60.7808 15.7134 60.7808 13.9694C60.7808 13.0574 60.6728 12.3654 60.4568 11.8934C60.2408 11.4134 59.8888 11.1734 59.4008 11.1734C58.4728 11.1734 58.0088 12.0454 58.0088 13.7894C58.0088 14.7014 58.1208 15.3974 58.3448 15.8774C58.5768 16.3494 58.9368 16.5854 59.4248 16.5854ZM63.0117 10.5734H66.1077V11.2574L65.2677 11.4014L66.1557 14.5934L66.4437 15.9014L66.7077 14.5814L67.7877 10.5734H69.2397L70.4277 14.5814L70.7157 15.9014L71.0037 14.5934L71.8437 11.4134L70.9677 11.2574V10.5734H73.5357V11.2574L72.9237 11.3894L71.0997 17.3294H69.7197L68.5077 13.4414L68.2317 12.0134L68.0157 13.4414L66.8997 17.3294H65.5077L63.5877 11.3894L63.0117 11.2574V10.5734Z" fill="#000334"/>
<path d="M46.8379 32.2334C46.7793 32.2334 46.7305 32.1982 46.6914 32.1279C46.6562 32.0576 46.6387 31.9932 46.6387 31.9346C46.6387 31.8682 46.6523 31.8174 46.6797 31.7822C46.707 31.7471 46.7578 31.7256 46.832 31.7178C47.0664 31.6982 47.2656 31.6611 47.4297 31.6064C47.5977 31.5479 47.6816 31.46 47.6816 31.3428V25.0029C47.6816 24.8506 47.6367 24.7354 47.5469 24.6572C47.457 24.5791 47.3574 24.5283 47.248 24.5049C47.1426 24.4814 46.9902 24.458 46.791 24.4346C46.7051 24.4268 46.6484 24.4111 46.6211 24.3877C46.5938 24.3604 46.5801 24.3037 46.5801 24.2178C46.5801 24.1592 46.5977 24.0947 46.6328 24.0244C46.6719 23.9541 46.7207 23.9189 46.7793 23.9189H50.6641C51.6797 23.9229 52.5312 24.1104 53.2188 24.4814C53.9062 24.8525 54.416 25.3408 54.748 25.9463C55.084 26.5479 55.252 27.2021 55.252 27.9092C55.252 28.8623 55.0332 29.665 54.5957 30.3174C54.1621 30.9658 53.6211 31.4482 52.9727 31.7646C52.3242 32.0771 51.6816 32.2334 51.0449 32.2334H46.8379ZM49.416 31.249C49.416 31.3545 49.5039 31.4463 49.6797 31.5244C49.8594 31.6025 50.1777 31.6416 50.6348 31.6416C51.1934 31.6416 51.6562 31.5576 52.0234 31.3896C52.3906 31.2217 52.6855 30.8682 52.9082 30.3291C53.1348 29.79 53.248 28.9912 53.248 27.9326C53.248 27.0186 53.127 26.3096 52.8848 25.8057C52.6426 25.2979 52.3262 24.9521 51.9355 24.7686C51.5449 24.5811 51.0918 24.4873 50.5762 24.4873H49.4219L49.416 31.249ZM56.2832 32.2334C56.2207 32.2334 56.1719 32.208 56.1367 32.1572C56.1016 32.1025 56.084 32.0479 56.084 31.9932C56.084 31.9268 56.0977 31.876 56.125 31.8408C56.1562 31.8018 56.207 31.7803 56.2773 31.7764C56.7266 31.7295 56.9512 31.6182 56.9512 31.4424L56.957 27.6748C56.957 27.4912 56.9238 27.3525 56.8574 27.2588C56.7949 27.165 56.7188 27.1025 56.6289 27.0713C56.5391 27.04 56.4238 27.0146 56.2832 26.9951C56.2637 26.9912 56.2324 26.9873 56.1895 26.9834C56.1465 26.9756 56.1113 26.9678 56.084 26.96C56.0371 26.9404 56.002 26.9131 55.9785 26.8779C55.9551 26.8428 55.9434 26.792 55.9434 26.7256C55.9434 26.6709 55.9551 26.6162 55.9785 26.5615C56.0059 26.5029 56.041 26.4717 56.084 26.4678C56.873 26.417 57.6387 26.3916 58.3809 26.3916C58.4238 26.3916 58.4629 26.4111 58.498 26.4502C58.5332 26.4854 58.5527 26.5439 58.5566 26.626V31.249C58.5566 31.3936 58.5918 31.5029 58.6621 31.5771C58.7363 31.6514 58.8203 31.7002 58.9141 31.7236C59.0078 31.7432 59.127 31.7607 59.2715 31.7764C59.3574 31.7842 59.4141 31.8018 59.4414 31.8291C59.4688 31.8525 59.4824 31.9072 59.4824 31.9932C59.4824 32.0439 59.4629 32.0967 59.4238 32.1514C59.3887 32.2061 59.3418 32.2334 59.2832 32.2334H56.2832ZM57.7246 25.3721C57.541 25.3721 57.375 25.3311 57.2266 25.249C57.082 25.1631 56.9668 25.0459 56.8809 24.8975C56.7949 24.7451 56.752 24.5752 56.752 24.3877C56.752 24.2002 56.7949 24.0322 56.8809 23.8838C56.9668 23.7314 57.082 23.6123 57.2266 23.5264C57.375 23.4404 57.541 23.3975 57.7246 23.3975C57.9043 23.3975 58.0684 23.4404 58.2168 23.5264C58.3652 23.6123 58.4824 23.7314 58.5684 23.8838C58.6543 24.0322 58.6973 24.2002 58.6973 24.3877C58.6973 24.5752 58.6543 24.7451 58.5684 24.8975C58.4824 25.0459 58.3652 25.1631 58.2168 25.249C58.0684 25.3311 57.9043 25.3721 57.7246 25.3721ZM62.8164 35.0342C62.3047 35.0342 61.832 34.9736 61.3984 34.8525C60.9648 34.7314 60.6152 34.5479 60.3496 34.3018C60.0879 34.0557 59.957 33.7549 59.957 33.3994C59.957 32.7939 60.3184 32.3779 61.041 32.1514C60.748 32.0303 60.5469 31.8838 60.4375 31.7119C60.332 31.5361 60.2793 31.3291 60.2793 31.0908C60.2793 30.8252 60.3848 30.585 60.5957 30.3701C60.8066 30.1514 61.0586 29.9971 61.3516 29.9072C60.9922 29.7432 60.7246 29.5107 60.5488 29.21C60.377 28.9053 60.291 28.5752 60.291 28.2197C60.291 27.8447 60.3848 27.5127 60.5723 27.2236C60.7637 26.9307 61.0469 26.7021 61.4219 26.5381C61.8008 26.374 62.2598 26.292 62.7988 26.292C63.1855 26.292 63.5098 26.335 63.7715 26.4209C64.0371 26.5068 64.2734 26.6338 64.4805 26.8018C64.6094 26.6494 64.7617 26.5244 64.9375 26.4268C65.1172 26.3252 65.3008 26.2744 65.4883 26.2744C65.75 26.2744 65.9688 26.3545 66.1445 26.5146C66.3203 26.6748 66.4082 26.9033 66.4082 27.2002C66.4082 27.4385 66.3633 27.6201 66.2734 27.7451C66.1875 27.8701 66.0605 27.9326 65.8926 27.9326L65.207 26.9248C65.1094 26.9287 65.0273 26.9443 64.9609 26.9717C64.8984 26.999 64.834 27.042 64.7676 27.1006C64.998 27.4209 65.1133 27.7881 65.1133 28.2021C65.1133 28.5811 65.0254 28.9189 64.8496 29.2158C64.6777 29.5127 64.4102 29.7471 64.0469 29.9189C63.6836 30.0869 63.2305 30.1709 62.6875 30.1709C62.2773 30.1709 61.9531 30.1338 61.7148 30.0596C61.6094 30.1221 61.5273 30.2061 61.4688 30.3115C61.4102 30.417 61.3809 30.5264 61.3809 30.6396C61.3809 30.8037 61.4609 30.9189 61.6211 30.9854C61.7812 31.0518 62.0098 31.085 62.3066 31.085H63.8359C64.4766 31.085 64.9805 31.2393 65.3477 31.5479C65.7148 31.8525 65.8965 32.3076 65.8926 32.9131C65.8926 33.2607 65.7754 33.5967 65.541 33.9209C65.3105 34.249 64.9629 34.5166 64.498 34.7236C64.0332 34.9307 63.4727 35.0342 62.8164 35.0342ZM62.7168 29.6436C63.041 29.6436 63.2715 29.5107 63.4082 29.2451C63.5449 28.9756 63.6133 28.626 63.6133 28.1963C63.6133 27.2783 63.3125 26.8193 62.7109 26.8193C62.3867 26.8193 62.1621 26.9463 62.0371 27.2002C61.9121 27.4502 61.8496 27.7939 61.8496 28.2314C61.8496 28.665 61.9121 29.0088 62.0371 29.2627C62.166 29.5166 62.3926 29.6436 62.7168 29.6436ZM62.9746 34.46C63.2637 34.46 63.5332 34.415 63.7832 34.3252C64.0332 34.2393 64.2344 34.1084 64.3867 33.9326C64.5391 33.7607 64.6152 33.5537 64.6152 33.3115C64.6152 33.0498 64.5273 32.8389 64.3516 32.6787C64.1758 32.5186 63.9102 32.4385 63.5547 32.4385H62.3652C62.248 32.4385 62.0938 32.4268 61.9023 32.4033C61.7148 32.3838 61.582 32.3564 61.5039 32.3213C61.4414 32.4424 61.3945 32.5615 61.3633 32.6787C61.332 32.7959 61.3164 32.9521 61.3164 33.1475C61.3164 33.4482 61.4004 33.6963 61.5684 33.8916C61.7363 34.0908 61.9453 34.2354 62.1953 34.3252C62.4492 34.415 62.709 34.46 62.9746 34.46ZM66.9473 32.2334C66.8848 32.2334 66.8359 32.208 66.8008 32.1572C66.7656 32.1025 66.748 32.0479 66.748 31.9932C66.748 31.9268 66.7617 31.876 66.7891 31.8408C66.8203 31.8018 66.8711 31.7803 66.9414 31.7764C67.3906 31.7295 67.6152 31.6182 67.6152 31.4424L67.6211 27.6748C67.6211 27.4912 67.5879 27.3525 67.5215 27.2588C67.459 27.165 67.3828 27.1025 67.293 27.0713C67.2031 27.04 67.0879 27.0146 66.9473 26.9951C66.9277 26.9912 66.8965 26.9873 66.8535 26.9834C66.8105 26.9756 66.7754 26.9678 66.748 26.96C66.7012 26.9404 66.666 26.9131 66.6426 26.8779C66.6191 26.8428 66.6074 26.792 66.6074 26.7256C66.6074 26.6709 66.6191 26.6162 66.6426 26.5615C66.6699 26.5029 66.7051 26.4717 66.748 26.4678C67.5371 26.417 68.3027 26.3916 69.0449 26.3916C69.0879 26.3916 69.127 26.4111 69.1621 26.4502C69.1973 26.4854 69.2168 26.5439 69.2207 26.626V31.249C69.2207 31.3936 69.2559 31.5029 69.3262 31.5771C69.4004 31.6514 69.4844 31.7002 69.5781 31.7236C69.6719 31.7432 69.791 31.7607 69.9355 31.7764C70.0215 31.7842 70.0781 31.8018 70.1055 31.8291C70.1328 31.8525 70.1465 31.9072 70.1465 31.9932C70.1465 32.0439 70.127 32.0967 70.0879 32.1514C70.0527 32.2061 70.0059 32.2334 69.9473 32.2334H66.9473ZM68.3887 25.3721C68.2051 25.3721 68.0391 25.3311 67.8906 25.249C67.7461 25.1631 67.6309 25.0459 67.5449 24.8975C67.459 24.7451 67.416 24.5752 67.416 24.3877C67.416 24.2002 67.459 24.0322 67.5449 23.8838C67.6309 23.7314 67.7461 23.6123 67.8906 23.5264C68.0391 23.4404 68.2051 23.3975 68.3887 23.3975C68.5684 23.3975 68.7324 23.4404 68.8809 23.5264C69.0293 23.6123 69.1465 23.7314 69.2324 23.8838C69.3184 24.0322 69.3613 24.2002 69.3613 24.3877C69.3613 24.5752 69.3184 24.7451 69.2324 24.8975C69.1465 25.0459 69.0293 25.1631 68.8809 25.249C68.7324 25.3311 68.5684 25.3721 68.3887 25.3721ZM73.0879 32.4092C72.541 32.4092 72.1152 32.2959 71.8105 32.0693C71.5098 31.8428 71.3594 31.4619 71.3594 30.9268V27.0068H70.7207C70.6777 27.0029 70.6426 26.9756 70.6152 26.9248C70.5918 26.874 70.5801 26.8213 70.5801 26.7666C70.5801 26.6924 70.5938 26.6318 70.6211 26.585C70.6484 26.5381 70.6855 26.5107 70.7324 26.5029L71.2363 26.3564C71.4434 26.3252 71.6367 26.1748 71.8164 25.9053C71.9961 25.6318 72.1367 25.2646 72.2383 24.8037C72.2695 24.6709 72.3984 24.6045 72.625 24.6045C72.7578 24.6045 72.8496 24.6201 72.9004 24.6514C72.9512 24.6787 72.9766 24.7236 72.9766 24.7861V26.4092H74.418C74.4609 26.4131 74.4941 26.4346 74.5176 26.4736C74.5449 26.5127 74.5586 26.5576 74.5586 26.6084C74.5586 26.7178 74.541 26.8096 74.5059 26.8838C74.4707 26.958 74.4316 26.9951 74.3887 26.9951H72.9766V30.4346C72.9766 30.7588 72.998 31.0088 73.041 31.1846C73.0879 31.3604 73.1523 31.4814 73.2344 31.5479C73.3164 31.6143 73.4238 31.6475 73.5566 31.6475C73.8496 31.6475 74.1836 31.5576 74.5586 31.3779C74.582 31.3779 74.6113 31.4053 74.6465 31.46C74.6855 31.5107 74.7168 31.5654 74.7402 31.624C74.7637 31.6826 74.7695 31.7256 74.7578 31.7529C74.668 31.8506 74.5234 31.9502 74.3242 32.0518C74.1289 32.1533 73.918 32.2373 73.6914 32.3037C73.4648 32.374 73.2637 32.4092 73.0879 32.4092ZM75.4668 30.8154C75.4668 30.3311 75.6445 29.9463 76 29.6611C76.3555 29.3721 76.791 29.1631 77.3066 29.0342C77.8223 28.9014 78.4102 28.7998 79.0703 28.7295V27.7803C79.0703 27.4639 78.9883 27.2275 78.8242 27.0713C78.6602 26.915 78.4141 26.8369 78.0859 26.8369C77.7852 26.8369 77.5723 26.8701 77.4473 26.9365L76.5918 28.4541C76.3301 28.4541 76.1172 28.3857 75.9531 28.249C75.793 28.1123 75.7129 27.9209 75.7129 27.6748C75.7129 27.3896 75.8438 27.1436 76.1055 26.9365C76.3711 26.7256 76.707 26.5654 77.1133 26.4561C77.5195 26.3467 77.9277 26.292 78.3379 26.292C79.1738 26.292 79.7793 26.4521 80.1543 26.7725C80.5332 27.0889 80.7227 27.5029 80.7227 28.0146V31.0674C80.7227 31.2236 80.7441 31.3584 80.7871 31.4717C80.8301 31.5811 80.8828 31.6357 80.9453 31.6357C80.9961 31.6357 81.0938 31.6221 81.2383 31.5947C81.3242 31.5791 81.3711 31.5713 81.3789 31.5713C81.4375 31.5713 81.4824 31.6045 81.5137 31.6709C81.5449 31.7334 81.5605 31.8018 81.5605 31.876C81.5605 31.9229 81.5488 31.9561 81.5254 31.9756C81.4082 32.0576 81.209 32.1436 80.9277 32.2334C80.6504 32.3232 80.3457 32.3682 80.0137 32.3682C79.6777 32.3682 79.4551 32.2979 79.3457 32.1572C79.2363 32.0166 79.1816 31.835 79.1816 31.6123V31.583C78.6816 32.1064 78.0137 32.3682 77.1777 32.3682C76.916 32.3682 76.6543 32.3135 76.3926 32.2041C76.1309 32.0947 75.9102 31.9248 75.7305 31.6943C75.5547 31.46 75.4668 31.167 75.4668 30.8154ZM77.2012 30.7627C77.2012 30.9893 77.2715 31.1846 77.4121 31.3486C77.5527 31.5088 77.7461 31.5889 77.9922 31.5889C78.2383 31.5889 78.4512 31.5439 78.6309 31.4541C78.8105 31.3604 78.957 31.251 79.0703 31.126V29.1807C78.6758 29.2393 78.3477 29.3154 78.0859 29.4092C77.8281 29.499 77.6152 29.6514 77.4473 29.8662C77.2832 30.0811 77.2012 30.3799 77.2012 30.7627ZM82.1406 32.2334C82.082 32.2334 82.0332 32.208 81.9941 32.1572C81.9551 32.1025 81.9355 32.0479 81.9355 31.9932C81.9355 31.9268 81.9492 31.876 81.9766 31.8408C82.0078 31.8018 82.0586 31.7803 82.1289 31.7764C82.3125 31.7607 82.4707 31.7275 82.6035 31.6768C82.7402 31.6221 82.8086 31.5439 82.8086 31.4424L82.8145 24.4287C82.8145 24.249 82.7773 24.1123 82.7031 24.0186C82.6289 23.9209 82.541 23.8564 82.4395 23.8252C82.3379 23.79 82.2109 23.7627 82.0586 23.7432C81.9336 23.7236 81.8613 23.7119 81.8418 23.708C81.7949 23.6885 81.7598 23.6611 81.7363 23.626C81.7129 23.5908 81.7012 23.54 81.7012 23.4736C81.7012 23.4189 81.7129 23.3643 81.7363 23.3096C81.7637 23.251 81.7988 23.2197 81.8418 23.2158C82.623 23.1689 83.4062 23.1455 84.1914 23.1455C84.2344 23.1455 84.2734 23.165 84.3086 23.2041C84.3438 23.2393 84.3633 23.2979 84.3672 23.3799V31.249C84.3672 31.3936 84.4023 31.5029 84.4727 31.5771C84.5469 31.6514 84.6309 31.7002 84.7246 31.7236C84.8184 31.7432 84.9375 31.7607 85.082 31.7764C85.168 31.7842 85.2246 31.8018 85.252 31.8291C85.2793 31.8564 85.293 31.9092 85.293 31.9873C85.293 32.0459 85.2734 32.1025 85.2344 32.1572C85.1992 32.208 85.1504 32.2334 85.0879 32.2334H82.1406ZM89.2188 31.9346C89.2188 31.8682 89.2324 31.8174 89.2598 31.7822C89.2871 31.7471 89.3379 31.7256 89.4121 31.7178C89.6465 31.6982 89.8477 31.6611 90.0156 31.6064C90.1836 31.5479 90.2676 31.46 90.2676 31.3428V25.0029C90.2676 24.8506 90.2227 24.7354 90.1328 24.6572C90.043 24.5791 89.9434 24.5283 89.834 24.5049C89.7285 24.4814 89.5762 24.458 89.377 24.4346C89.291 24.4268 89.2344 24.4111 89.207 24.3877C89.1797 24.3604 89.166 24.3037 89.166 24.2178C89.166 24.1592 89.1836 24.0947 89.2188 24.0244C89.2578 23.9541 89.3066 23.9189 89.3652 23.9189H95.8105L96.0156 25.8232C96.0195 25.8818 95.9922 25.9307 95.9336 25.9697C95.875 26.0049 95.8184 26.0225 95.7637 26.0225C95.5605 26.0225 95.4238 25.958 95.3535 25.8291L95.1191 25.3662C95.0059 25.1318 94.9121 24.96 94.8379 24.8506C94.7676 24.7412 94.6816 24.6553 94.5801 24.5928C94.4785 24.5303 94.3457 24.499 94.1816 24.499H91.9902V27.6748H93.4902C93.584 27.6631 93.6738 27.5947 93.7598 27.4697C93.8457 27.3447 93.918 27.2041 93.9766 27.0479C94.0352 26.8877 94.0703 26.7627 94.082 26.6729C94.0977 26.5479 94.1875 26.4854 94.3516 26.4854C94.4102 26.4854 94.4746 26.5049 94.5449 26.5439C94.6152 26.5791 94.6504 26.626 94.6504 26.6846V29.2803C94.6504 29.3389 94.6152 29.3877 94.5449 29.4268C94.4746 29.4619 94.4102 29.4795 94.3516 29.4795C94.2773 29.4795 94.2129 29.4658 94.1582 29.4385C94.1035 29.4072 94.0723 29.3564 94.0645 29.2861C94.0566 29.1885 94.0234 29.0557 93.9648 28.8877C93.9062 28.7158 93.832 28.5654 93.7422 28.4365C93.6523 28.3037 93.5566 28.2373 93.4551 28.2373H91.9902V31.0791C91.9902 31.4229 92.168 31.6104 92.5234 31.6416H94.2051C94.4434 31.6416 94.6523 31.5908 94.832 31.4893C95.0156 31.3838 95.1836 31.2158 95.3359 30.9854C95.4883 30.7549 95.6406 30.4424 95.793 30.0479C95.8164 29.9814 95.8691 29.9326 95.9512 29.9014C96.0332 29.8701 96.1133 29.8545 96.1914 29.8545C96.2734 29.8545 96.3477 29.8721 96.4141 29.9072C96.4844 29.9424 96.5234 29.9912 96.5312 30.0537L96.2734 32.2334H89.418C89.3594 32.2334 89.3105 32.1982 89.2715 32.1279C89.2363 32.0576 89.2188 31.9932 89.2188 31.9346ZM97.5449 30.8154C97.5449 30.3311 97.7227 29.9463 98.0781 29.6611C98.4336 29.3721 98.8691 29.1631 99.3848 29.0342C99.9004 28.9014 100.488 28.7998 101.148 28.7295V27.7803C101.148 27.4639 101.066 27.2275 100.902 27.0713C100.738 26.915 100.492 26.8369 100.164 26.8369C99.8633 26.8369 99.6504 26.8701 99.5254 26.9365L98.6699 28.4541C98.4082 28.4541 98.1953 28.3857 98.0312 28.249C97.8711 28.1123 97.791 27.9209 97.791 27.6748C97.791 27.3896 97.9219 27.1436 98.1836 26.9365C98.4492 26.7256 98.7852 26.5654 99.1914 26.4561C99.5977 26.3467 100.006 26.292 100.416 26.292C101.252 26.292 101.857 26.4521 102.232 26.7725C102.611 27.0889 102.801 27.5029 102.801 28.0146V31.0674C102.801 31.2236 102.822 31.3584 102.865 31.4717C102.908 31.5811 102.961 31.6357 103.023 31.6357C103.074 31.6357 103.172 31.6221 103.316 31.5947C103.402 31.5791 103.449 31.5713 103.457 31.5713C103.516 31.5713 103.561 31.6045 103.592 31.6709C103.623 31.7334 103.639 31.8018 103.639 31.876C103.639 31.9229 103.627 31.9561 103.604 31.9756C103.486 32.0576 103.287 32.1436 103.006 32.2334C102.729 32.3232 102.424 32.3682 102.092 32.3682C101.756 32.3682 101.533 32.2979 101.424 32.1572C101.314 32.0166 101.26 31.835 101.26 31.6123V31.583C100.76 32.1064 100.092 32.3682 99.2559 32.3682C98.9941 32.3682 98.7324 32.3135 98.4707 32.2041C98.209 32.0947 97.9883 31.9248 97.8086 31.6943C97.6328 31.46 97.5449 31.167 97.5449 30.8154ZM99.2793 30.7627C99.2793 30.9893 99.3496 31.1846 99.4902 31.3486C99.6309 31.5088 99.8242 31.5889 100.07 31.5889C100.316 31.5889 100.529 31.5439 100.709 31.4541C100.889 31.3604 101.035 31.251 101.148 31.126V29.1807C100.754 29.2393 100.426 29.3154 100.164 29.4092C99.9062 29.499 99.6934 29.6514 99.5254 29.8662C99.3613 30.0811 99.2793 30.3799 99.2793 30.7627ZM106.645 32.4033C106.367 32.4033 106.127 32.374 105.924 32.3154C105.725 32.2568 105.52 32.1846 105.309 32.0986C105.215 32.0596 105.135 32.04 105.068 32.04C105.01 32.04 104.963 32.0498 104.928 32.0693C104.896 32.085 104.865 32.1084 104.834 32.1396C104.799 32.1709 104.764 32.1963 104.729 32.2158C104.693 32.2314 104.645 32.2393 104.582 32.2393C104.504 32.2393 104.438 32.2217 104.383 32.1865C104.332 32.1514 104.307 32.1064 104.307 32.0518C104.307 31.9346 104.303 31.8037 104.295 31.6592C104.287 31.5146 104.281 31.376 104.277 31.2432C104.254 30.7666 104.242 30.4658 104.242 30.3408C104.242 30.2549 104.268 30.1924 104.318 30.1533C104.373 30.1104 104.438 30.0889 104.512 30.0889C104.574 30.0889 104.627 30.1006 104.67 30.124C104.717 30.1475 104.746 30.1787 104.758 30.2178C104.793 30.3467 104.83 30.4678 104.869 30.5811C104.912 30.6943 104.982 30.8486 105.08 31.0439C105.197 31.2744 105.387 31.4756 105.648 31.6475C105.914 31.8193 106.221 31.9053 106.568 31.9053C106.904 31.9053 107.172 31.8428 107.371 31.7178C107.574 31.5928 107.676 31.4131 107.676 31.1787C107.676 30.9873 107.617 30.8232 107.5 30.6865C107.383 30.5459 107.209 30.417 106.979 30.2998C106.748 30.1787 106.424 30.0381 106.006 29.8779C105.537 29.6865 105.152 29.4463 104.852 29.1572C104.555 28.8682 104.406 28.4912 104.406 28.0264C104.406 27.6943 104.512 27.3955 104.723 27.1299C104.934 26.8643 105.215 26.6592 105.566 26.5146C105.918 26.3662 106.299 26.292 106.709 26.292C106.928 26.292 107.121 26.3135 107.289 26.3564C107.457 26.3955 107.627 26.4463 107.799 26.5088C107.928 26.5557 108.012 26.5791 108.051 26.5791C108.109 26.5791 108.148 26.5693 108.168 26.5498C108.191 26.5264 108.209 26.499 108.221 26.4678C108.232 26.4326 108.244 26.4053 108.256 26.3857C108.279 26.3467 108.314 26.3174 108.361 26.2979C108.408 26.2744 108.459 26.2627 108.514 26.2627C108.592 26.2627 108.658 26.2822 108.713 26.3213C108.771 26.3564 108.801 26.4053 108.801 26.4678C108.801 26.5146 108.799 26.5596 108.795 26.6025C108.787 26.8057 108.783 27.0225 108.783 27.2529C108.783 27.2881 108.789 27.4287 108.801 27.6748C108.809 27.7998 108.812 27.8818 108.812 27.9209C108.812 28.0186 108.787 28.0908 108.736 28.1377C108.689 28.1846 108.627 28.208 108.549 28.208C108.494 28.208 108.445 28.1982 108.402 28.1787C108.359 28.1553 108.332 28.1279 108.32 28.0967C108.234 27.8623 108.139 27.6553 108.033 27.4756C107.932 27.2959 107.775 27.1377 107.564 27.001C107.357 26.8643 107.092 26.7959 106.768 26.7959C106.51 26.7959 106.293 26.8525 106.117 26.9658C105.945 27.0791 105.859 27.2529 105.859 27.4873C105.859 27.7373 105.967 27.9482 106.182 28.1201C106.4 28.2881 106.742 28.458 107.207 28.6299C107.613 28.7822 107.961 28.9404 108.25 29.1045C108.539 29.2686 108.773 29.4736 108.953 29.7197C109.137 29.9658 109.229 30.2568 109.229 30.5928C109.229 31.167 109.004 31.6123 108.555 31.9287C108.109 32.2451 107.473 32.4033 106.645 32.4033ZM111.15 34.8643C110.963 34.8643 110.777 34.8232 110.594 34.7412C110.414 34.6631 110.266 34.5537 110.148 34.4131C110.035 34.2764 109.979 34.126 109.979 33.9619C109.979 33.7393 110.037 33.5635 110.154 33.4346C110.275 33.3057 110.42 33.2412 110.588 33.2412L111.268 33.9736C111.447 33.9697 111.607 33.915 111.748 33.8096C111.893 33.7041 112.033 33.5439 112.17 33.3291C112.307 33.1143 112.465 32.8174 112.645 32.4385L110.377 27.376C110.283 27.1885 110.182 27.0615 110.072 26.9951C109.963 26.9248 109.826 26.8818 109.662 26.8662C109.576 26.8584 109.52 26.8428 109.492 26.8193C109.465 26.792 109.451 26.7354 109.451 26.6494C109.451 26.5947 109.469 26.542 109.504 26.4912C109.539 26.4365 109.586 26.4092 109.645 26.4092H112.668C112.73 26.4092 112.779 26.4365 112.814 26.4912C112.85 26.542 112.867 26.5947 112.867 26.6494C112.867 26.7158 112.854 26.7666 112.826 26.8018C112.799 26.8369 112.748 26.8584 112.674 26.8662C112.475 26.8896 112.318 26.9189 112.205 26.9541C112.096 26.9854 112.041 27.0479 112.041 27.1416L113.424 30.7451L114.66 27.1416C114.66 27.0479 114.6 26.9854 114.479 26.9541C114.361 26.9189 114.199 26.8896 113.992 26.8662C113.918 26.8584 113.867 26.8369 113.84 26.8018C113.812 26.7666 113.799 26.7158 113.799 26.6494C113.799 26.5947 113.816 26.542 113.852 26.4912C113.887 26.4365 113.936 26.4092 113.998 26.4092H116.037C116.096 26.4092 116.143 26.4365 116.178 26.4912C116.217 26.5459 116.236 26.5986 116.236 26.6494C116.236 26.7354 116.223 26.792 116.195 26.8193C116.168 26.8428 116.111 26.8584 116.025 26.8662C115.869 26.8818 115.744 26.9229 115.65 26.9893C115.557 27.0557 115.463 27.1846 115.369 27.376L113.688 31.6416C113.648 31.7393 113.623 31.7998 113.611 31.8232C113.342 32.4951 113.105 33.0322 112.902 33.4346C112.703 33.8369 112.457 34.1748 112.164 34.4482C111.875 34.7256 111.537 34.8643 111.15 34.8643Z" fill="#000334"/>
<path d="M0 15.2334C0 6.94913 6.71573 0.233398 15 0.233398H42V27.2334C42 35.5177 35.2843 42.2334 27 42.2334H0V15.2334Z" fill="#0011FF"/>
<path d="M14.5001 21.2333V34.3811H13.0001V17.7333L30.6158 35.6959H34.0001L34.5001 6.11328H25.6421V18.9324L28.0001 21.2333V7.73328H32.5001V34.3811H30.9474L11.5001 14.2333V36.2333L16.3579 36.3533V23.5342L14.5001 21.2333Z" stroke="white"/>
<path d="M8.40002 36.0246H10.0001V33.7333V31.2333V10.7333L30.6158 31.7515L30.2842 29.4507L8.40002 7.09937V31.7515V36.0246Z" stroke="white"/>
<path d="M11.3842 6.11328H9.06318L31.0001 28.2333V9.23328H29.5001V24.7333L11.3842 6.11328Z" stroke="white"/>
</svg>
