<svg width="26" height="28" viewBox="0 0 26 28" fill="none" xmlns="http://www.w3.org/2000/svg">
<path d="M25.6645 11.5412C25.6382 11.3973 25.5622 11.2672 25.4499 11.1736C25.3375 11.0799 25.1958 11.0286 25.0495 11.0287H13.277C13.1117 11.0287 12.9531 11.0942 12.836 11.2109C12.7188 11.3275 12.6527 11.4859 12.652 11.6512V16.4874C12.652 16.6532 12.7179 16.8122 12.8351 16.9294C12.9523 17.0466 13.1113 17.1124 13.277 17.1124H19.1958C18.8254 18.1885 18.1106 19.1124 17.162 19.7412C16.0034 20.4805 14.6512 20.8591 13.277 20.8287C11.8482 20.8151 10.4601 20.3509 9.31049 19.5023C8.16088 18.6537 7.30841 17.4639 6.87454 16.1024V16.0999C6.39452 14.6897 6.39452 13.1602 6.87454 11.7499V11.7474C7.30828 10.3864 8.16037 9.1969 9.30947 8.34831C10.4586 7.49972 11.8461 7.03531 13.2745 7.0212C14.8909 6.99417 16.4532 7.60336 17.6245 8.71745C17.7425 8.8308 17.9002 8.89338 18.0638 8.89175C18.2274 8.89011 18.3839 8.82439 18.4995 8.7087L22.0845 5.12245C22.144 5.06306 22.1909 4.99229 22.2223 4.91438C22.2538 4.83647 22.2692 4.75301 22.2677 4.66899C22.2662 4.58498 22.2478 4.50213 22.2135 4.4254C22.1792 4.34868 22.1298 4.27965 22.0683 4.22245C19.6877 1.99324 16.5395 0.767432 13.2783 0.799947C10.8436 0.792486 8.45535 1.4656 6.38292 2.74334C4.31048 4.02108 2.63639 5.85258 1.54954 8.0312C0.631433 9.86021 0.15332 11.8784 0.15332 13.9249C0.15332 15.9715 0.631433 17.9897 1.54954 19.8187C2.63639 21.9973 4.31048 23.8288 6.38292 25.1066C8.45535 26.3843 10.8436 27.0574 13.2783 27.0499C16.4758 27.1341 19.5846 25.9929 21.9683 23.8599L21.9745 23.8574C23.2655 22.6116 24.2819 21.1098 24.9584 19.4482C25.635 17.7866 25.9568 16.002 25.9033 14.2087C25.9033 13.3137 25.822 12.4212 25.6645 11.5412ZM13.2783 2.04995C15.9997 2.02132 18.6421 2.96402 20.7308 4.7087L18.0308 7.4087C16.6852 6.32692 15.0047 5.74788 13.2783 5.7712C11.7355 5.78218 10.2286 6.23837 8.93875 7.08497C7.64889 7.93157 6.63089 9.13257 6.00704 10.5437L2.90704 8.1387C3.93229 6.28831 5.43563 4.7472 7.26001 3.67636C9.0844 2.60552 11.1629 2.04301 13.2783 2.04995ZM1.40329 13.9262C1.3993 12.3325 1.71954 10.7547 2.34454 9.2887L5.56079 11.7812C5.17045 13.1841 5.17045 14.667 5.56079 16.0699L2.34454 18.5624C1.72566 17.0945 1.40527 15.518 1.40204 13.9249M13.277 25.7999C11.1613 25.807 9.08246 25.2456 7.25783 24.1746C5.4332 23.1035 3.92973 21.562 2.90454 19.7112L6.00579 17.3062C6.62964 18.7173 7.64764 19.9183 8.9375 20.7649C10.2274 21.6115 11.7342 22.0677 13.277 22.0787C14.7438 22.1008 16.1904 21.7356 17.4708 21.0199L17.6083 21.1262L20.562 23.4212C18.4771 25.0237 15.9059 25.8633 13.277 25.7999ZM21.5045 22.5699L18.532 20.2624C19.6224 19.3138 20.358 18.0228 20.6183 16.6012C20.6348 16.5112 20.6313 16.4186 20.608 16.3301C20.5848 16.2416 20.5424 16.1592 20.4839 16.0889C20.4254 16.0186 20.3521 15.9619 20.2693 15.923C20.1864 15.8841 20.0961 15.8639 20.0045 15.8637H13.902V12.2774H24.517C24.607 12.9183 24.652 13.562 24.652 14.2087C24.7423 17.3015 23.6117 20.3042 21.5045 22.5699Z" fill="#0011FF"/>
</svg>
