<svg width="118" height="45" viewBox="0 0 118 45" fill="none" xmlns="http://www.w3.org/2000/svg">
<path d="M47.928 11.1583L46.98 11.0023V10.2583H49.704L53.28 15.6583L53.952 17.0263V11.1583L52.92 11.0023V10.2583H55.896V11.0023L54.972 11.1583V19.1743H53.52L49.788 13.4983L48.948 11.9143V18.3343L50.16 18.4543V19.1743H46.98V18.4543L47.928 18.3343V11.1583ZM56.6728 15.8503C56.6728 15.0983 56.8208 14.4583 57.1168 13.9303C57.4208 13.4023 57.8248 13.0063 58.3288 12.7423C58.8328 12.4703 59.3808 12.3343 59.9728 12.3343C60.9808 12.3343 61.7568 12.6463 62.3008 13.2703C62.8528 13.8863 63.1288 14.7263 63.1288 15.7903C63.1288 16.5503 62.9768 17.1983 62.6728 17.7343C62.3768 18.2623 61.9768 18.6583 61.4728 18.9223C60.9768 19.1783 60.4288 19.3063 59.8288 19.3063C58.8288 19.3063 58.0528 18.9983 57.5008 18.3823C56.9488 17.7583 56.6728 16.9143 56.6728 15.8503ZM59.9248 18.5263C60.8288 18.5263 61.2808 17.6543 61.2808 15.9103C61.2808 14.9983 61.1728 14.3063 60.9568 13.8343C60.7408 13.3543 60.3888 13.1143 59.9008 13.1143C58.9728 13.1143 58.5088 13.9863 58.5088 15.7303C58.5088 16.6423 58.6208 17.3383 58.8448 17.8183C59.0768 18.2903 59.4368 18.5263 59.9248 18.5263ZM63.5117 12.5143H66.6077V13.1983L65.7677 13.3423L66.6557 16.5343L66.9437 17.8423L67.2077 16.5223L68.2877 12.5143H69.7397L70.9277 16.5223L71.2157 17.8423L71.5037 16.5343L72.3437 13.3543L71.4677 13.1983V12.5143H74.0357V13.1983L73.4237 13.3303L71.5997 19.2703H70.2197L69.0077 15.3823L68.7317 13.9543L68.5157 15.3823L67.3997 19.2703H66.0077L64.0877 13.3303L63.5117 13.1983V12.5143Z" fill="#212529"/>
<path d="M47.3379 34.1743C47.2793 34.1743 47.2305 34.1392 47.1914 34.0688C47.1562 33.9985 47.1387 33.9341 47.1387 33.8755C47.1387 33.8091 47.1523 33.7583 47.1797 33.7231C47.207 33.688 47.2578 33.6665 47.332 33.6587C47.5664 33.6392 47.7656 33.6021 47.9297 33.5474C48.0977 33.4888 48.1816 33.4009 48.1816 33.2837V26.9438C48.1816 26.7915 48.1367 26.6763 48.0469 26.5981C47.957 26.52 47.8574 26.4692 47.748 26.4458C47.6426 26.4224 47.4902 26.3989 47.291 26.3755C47.2051 26.3677 47.1484 26.3521 47.1211 26.3286C47.0938 26.3013 47.0801 26.2446 47.0801 26.1587C47.0801 26.1001 47.0977 26.0356 47.1328 25.9653C47.1719 25.895 47.2207 25.8599 47.2793 25.8599H51.1641C52.1797 25.8638 53.0312 26.0513 53.7188 26.4224C54.4062 26.7935 54.916 27.2817 55.248 27.8872C55.584 28.4888 55.752 29.1431 55.752 29.8501C55.752 30.8032 55.5332 31.606 55.0957 32.2583C54.6621 32.9067 54.1211 33.3892 53.4727 33.7056C52.8242 34.0181 52.1816 34.1743 51.5449 34.1743H47.3379ZM49.916 33.1899C49.916 33.2954 50.0039 33.3872 50.1797 33.4653C50.3594 33.5435 50.6777 33.5825 51.1348 33.5825C51.6934 33.5825 52.1562 33.4985 52.5234 33.3306C52.8906 33.1626 53.1855 32.8091 53.4082 32.27C53.6348 31.731 53.748 30.9321 53.748 29.8735C53.748 28.9595 53.627 28.2505 53.3848 27.7466C53.1426 27.2388 52.8262 26.8931 52.4355 26.7095C52.0449 26.522 51.5918 26.4282 51.0762 26.4282H49.9219L49.916 33.1899ZM56.7832 34.1743C56.7207 34.1743 56.6719 34.1489 56.6367 34.0981C56.6016 34.0435 56.584 33.9888 56.584 33.9341C56.584 33.8677 56.5977 33.8169 56.625 33.7817C56.6562 33.7427 56.707 33.7212 56.7773 33.7173C57.2266 33.6704 57.4512 33.5591 57.4512 33.3833L57.457 29.6157C57.457 29.4321 57.4238 29.2935 57.3574 29.1997C57.2949 29.106 57.2188 29.0435 57.1289 29.0122C57.0391 28.981 56.9238 28.9556 56.7832 28.936C56.7637 28.9321 56.7324 28.9282 56.6895 28.9243C56.6465 28.9165 56.6113 28.9087 56.584 28.9009C56.5371 28.8813 56.502 28.854 56.4785 28.8188C56.4551 28.7837 56.4434 28.7329 56.4434 28.6665C56.4434 28.6118 56.4551 28.5571 56.4785 28.5024C56.5059 28.4438 56.541 28.4126 56.584 28.4087C57.373 28.3579 58.1387 28.3325 58.8809 28.3325C58.9238 28.3325 58.9629 28.3521 58.998 28.3911C59.0332 28.4263 59.0527 28.4849 59.0566 28.5669V33.1899C59.0566 33.3345 59.0918 33.4438 59.1621 33.5181C59.2363 33.5923 59.3203 33.6411 59.4141 33.6646C59.5078 33.6841 59.627 33.7017 59.7715 33.7173C59.8574 33.7251 59.9141 33.7427 59.9414 33.77C59.9688 33.7935 59.9824 33.8481 59.9824 33.9341C59.9824 33.9849 59.9629 34.0376 59.9238 34.0923C59.8887 34.147 59.8418 34.1743 59.7832 34.1743H56.7832ZM58.2246 27.313C58.041 27.313 57.875 27.272 57.7266 27.1899C57.582 27.104 57.4668 26.9868 57.3809 26.8384C57.2949 26.686 57.252 26.5161 57.252 26.3286C57.252 26.1411 57.2949 25.9731 57.3809 25.8247C57.4668 25.6724 57.582 25.5532 57.7266 25.4673C57.875 25.3813 58.041 25.3384 58.2246 25.3384C58.4043 25.3384 58.5684 25.3813 58.7168 25.4673C58.8652 25.5532 58.9824 25.6724 59.0684 25.8247C59.1543 25.9731 59.1973 26.1411 59.1973 26.3286C59.1973 26.5161 59.1543 26.686 59.0684 26.8384C58.9824 26.9868 58.8652 27.104 58.7168 27.1899C58.5684 27.272 58.4043 27.313 58.2246 27.313ZM63.3164 36.9751C62.8047 36.9751 62.332 36.9146 61.8984 36.7935C61.4648 36.6724 61.1152 36.4888 60.8496 36.2427C60.5879 35.9966 60.457 35.6958 60.457 35.3403C60.457 34.7349 60.8184 34.3188 61.541 34.0923C61.248 33.9712 61.0469 33.8247 60.9375 33.6528C60.832 33.4771 60.7793 33.27 60.7793 33.0317C60.7793 32.7661 60.8848 32.5259 61.0957 32.311C61.3066 32.0923 61.5586 31.938 61.8516 31.8481C61.4922 31.6841 61.2246 31.4517 61.0488 31.1509C60.877 30.8462 60.791 30.5161 60.791 30.1606C60.791 29.7856 60.8848 29.4536 61.0723 29.1646C61.2637 28.8716 61.5469 28.6431 61.9219 28.479C62.3008 28.3149 62.7598 28.2329 63.2988 28.2329C63.6855 28.2329 64.0098 28.2759 64.2715 28.3618C64.5371 28.4478 64.7734 28.5747 64.9805 28.7427C65.1094 28.5903 65.2617 28.4653 65.4375 28.3677C65.6172 28.2661 65.8008 28.2153 65.9883 28.2153C66.25 28.2153 66.4688 28.2954 66.6445 28.4556C66.8203 28.6157 66.9082 28.8442 66.9082 29.1411C66.9082 29.3794 66.8633 29.561 66.7734 29.686C66.6875 29.811 66.5605 29.8735 66.3926 29.8735L65.707 28.8657C65.6094 28.8696 65.5273 28.8853 65.4609 28.9126C65.3984 28.9399 65.334 28.9829 65.2676 29.0415C65.498 29.3618 65.6133 29.729 65.6133 30.1431C65.6133 30.522 65.5254 30.8599 65.3496 31.1567C65.1777 31.4536 64.9102 31.688 64.5469 31.8599C64.1836 32.0278 63.7305 32.1118 63.1875 32.1118C62.7773 32.1118 62.4531 32.0747 62.2148 32.0005C62.1094 32.063 62.0273 32.147 61.9688 32.2524C61.9102 32.3579 61.8809 32.4673 61.8809 32.5806C61.8809 32.7446 61.9609 32.8599 62.1211 32.9263C62.2812 32.9927 62.5098 33.0259 62.8066 33.0259H64.3359C64.9766 33.0259 65.4805 33.1802 65.8477 33.4888C66.2148 33.7935 66.3965 34.2485 66.3926 34.854C66.3926 35.2017 66.2754 35.5376 66.041 35.8618C65.8105 36.1899 65.4629 36.4575 64.998 36.6646C64.5332 36.8716 63.9727 36.9751 63.3164 36.9751ZM63.2168 31.5845C63.541 31.5845 63.7715 31.4517 63.9082 31.186C64.0449 30.9165 64.1133 30.5669 64.1133 30.1372C64.1133 29.2192 63.8125 28.7603 63.2109 28.7603C62.8867 28.7603 62.6621 28.8872 62.5371 29.1411C62.4121 29.3911 62.3496 29.7349 62.3496 30.1724C62.3496 30.606 62.4121 30.9497 62.5371 31.2036C62.666 31.4575 62.8926 31.5845 63.2168 31.5845ZM63.4746 36.4009C63.7637 36.4009 64.0332 36.356 64.2832 36.2661C64.5332 36.1802 64.7344 36.0493 64.8867 35.8735C65.0391 35.7017 65.1152 35.4946 65.1152 35.2524C65.1152 34.9907 65.0273 34.7798 64.8516 34.6196C64.6758 34.4595 64.4102 34.3794 64.0547 34.3794H62.8652C62.748 34.3794 62.5938 34.3677 62.4023 34.3442C62.2148 34.3247 62.082 34.2974 62.0039 34.2622C61.9414 34.3833 61.8945 34.5024 61.8633 34.6196C61.832 34.7368 61.8164 34.8931 61.8164 35.0884C61.8164 35.3892 61.9004 35.6372 62.0684 35.8325C62.2363 36.0317 62.4453 36.1763 62.6953 36.2661C62.9492 36.356 63.209 36.4009 63.4746 36.4009ZM67.4473 34.1743C67.3848 34.1743 67.3359 34.1489 67.3008 34.0981C67.2656 34.0435 67.248 33.9888 67.248 33.9341C67.248 33.8677 67.2617 33.8169 67.2891 33.7817C67.3203 33.7427 67.3711 33.7212 67.4414 33.7173C67.8906 33.6704 68.1152 33.5591 68.1152 33.3833L68.1211 29.6157C68.1211 29.4321 68.0879 29.2935 68.0215 29.1997C67.959 29.106 67.8828 29.0435 67.793 29.0122C67.7031 28.981 67.5879 28.9556 67.4473 28.936C67.4277 28.9321 67.3965 28.9282 67.3535 28.9243C67.3105 28.9165 67.2754 28.9087 67.248 28.9009C67.2012 28.8813 67.166 28.854 67.1426 28.8188C67.1191 28.7837 67.1074 28.7329 67.1074 28.6665C67.1074 28.6118 67.1191 28.5571 67.1426 28.5024C67.1699 28.4438 67.2051 28.4126 67.248 28.4087C68.0371 28.3579 68.8027 28.3325 69.5449 28.3325C69.5879 28.3325 69.627 28.3521 69.6621 28.3911C69.6973 28.4263 69.7168 28.4849 69.7207 28.5669V33.1899C69.7207 33.3345 69.7559 33.4438 69.8262 33.5181C69.9004 33.5923 69.9844 33.6411 70.0781 33.6646C70.1719 33.6841 70.291 33.7017 70.4355 33.7173C70.5215 33.7251 70.5781 33.7427 70.6055 33.77C70.6328 33.7935 70.6465 33.8481 70.6465 33.9341C70.6465 33.9849 70.627 34.0376 70.5879 34.0923C70.5527 34.147 70.5059 34.1743 70.4473 34.1743H67.4473ZM68.8887 27.313C68.7051 27.313 68.5391 27.272 68.3906 27.1899C68.2461 27.104 68.1309 26.9868 68.0449 26.8384C67.959 26.686 67.916 26.5161 67.916 26.3286C67.916 26.1411 67.959 25.9731 68.0449 25.8247C68.1309 25.6724 68.2461 25.5532 68.3906 25.4673C68.5391 25.3813 68.7051 25.3384 68.8887 25.3384C69.0684 25.3384 69.2324 25.3813 69.3809 25.4673C69.5293 25.5532 69.6465 25.6724 69.7324 25.8247C69.8184 25.9731 69.8613 26.1411 69.8613 26.3286C69.8613 26.5161 69.8184 26.686 69.7324 26.8384C69.6465 26.9868 69.5293 27.104 69.3809 27.1899C69.2324 27.272 69.0684 27.313 68.8887 27.313ZM73.5879 34.3501C73.041 34.3501 72.6152 34.2368 72.3105 34.0103C72.0098 33.7837 71.8594 33.4028 71.8594 32.8677V28.9478H71.2207C71.1777 28.9438 71.1426 28.9165 71.1152 28.8657C71.0918 28.8149 71.0801 28.7622 71.0801 28.7075C71.0801 28.6333 71.0938 28.5728 71.1211 28.5259C71.1484 28.479 71.1855 28.4517 71.2324 28.4438L71.7363 28.2974C71.9434 28.2661 72.1367 28.1157 72.3164 27.8462C72.4961 27.5728 72.6367 27.2056 72.7383 26.7446C72.7695 26.6118 72.8984 26.5454 73.125 26.5454C73.2578 26.5454 73.3496 26.561 73.4004 26.5923C73.4512 26.6196 73.4766 26.6646 73.4766 26.7271V28.3501H74.918C74.9609 28.354 74.9941 28.3755 75.0176 28.4146C75.0449 28.4536 75.0586 28.4985 75.0586 28.5493C75.0586 28.6587 75.041 28.7505 75.0059 28.8247C74.9707 28.8989 74.9316 28.936 74.8887 28.936H73.4766V32.3755C73.4766 32.6997 73.498 32.9497 73.541 33.1255C73.5879 33.3013 73.6523 33.4224 73.7344 33.4888C73.8164 33.5552 73.9238 33.5884 74.0566 33.5884C74.3496 33.5884 74.6836 33.4985 75.0586 33.3188C75.082 33.3188 75.1113 33.3462 75.1465 33.4009C75.1855 33.4517 75.2168 33.5063 75.2402 33.5649C75.2637 33.6235 75.2695 33.6665 75.2578 33.6938C75.168 33.7915 75.0234 33.8911 74.8242 33.9927C74.6289 34.0942 74.418 34.1782 74.1914 34.2446C73.9648 34.3149 73.7637 34.3501 73.5879 34.3501ZM75.9668 32.7563C75.9668 32.272 76.1445 31.8872 76.5 31.6021C76.8555 31.313 77.291 31.104 77.8066 30.9751C78.3223 30.8423 78.9102 30.7407 79.5703 30.6704V29.7212C79.5703 29.4048 79.4883 29.1685 79.3242 29.0122C79.1602 28.856 78.9141 28.7778 78.5859 28.7778C78.2852 28.7778 78.0723 28.811 77.9473 28.8774L77.0918 30.395C76.8301 30.395 76.6172 30.3267 76.4531 30.1899C76.293 30.0532 76.2129 29.8618 76.2129 29.6157C76.2129 29.3306 76.3438 29.0845 76.6055 28.8774C76.8711 28.6665 77.207 28.5063 77.6133 28.397C78.0195 28.2876 78.4277 28.2329 78.8379 28.2329C79.6738 28.2329 80.2793 28.3931 80.6543 28.7134C81.0332 29.0298 81.2227 29.4438 81.2227 29.9556V33.0083C81.2227 33.1646 81.2441 33.2993 81.2871 33.4126C81.3301 33.522 81.3828 33.5767 81.4453 33.5767C81.4961 33.5767 81.5938 33.563 81.7383 33.5356C81.8242 33.52 81.8711 33.5122 81.8789 33.5122C81.9375 33.5122 81.9824 33.5454 82.0137 33.6118C82.0449 33.6743 82.0605 33.7427 82.0605 33.8169C82.0605 33.8638 82.0488 33.897 82.0254 33.9165C81.9082 33.9985 81.709 34.0845 81.4277 34.1743C81.1504 34.2642 80.8457 34.3091 80.5137 34.3091C80.1777 34.3091 79.9551 34.2388 79.8457 34.0981C79.7363 33.9575 79.6816 33.7759 79.6816 33.5532V33.5239C79.1816 34.0474 78.5137 34.3091 77.6777 34.3091C77.416 34.3091 77.1543 34.2544 76.8926 34.145C76.6309 34.0356 76.4102 33.8657 76.2305 33.6353C76.0547 33.4009 75.9668 33.1079 75.9668 32.7563ZM77.7012 32.7036C77.7012 32.9302 77.7715 33.1255 77.9121 33.2896C78.0527 33.4497 78.2461 33.5298 78.4922 33.5298C78.7383 33.5298 78.9512 33.4849 79.1309 33.395C79.3105 33.3013 79.457 33.1919 79.5703 33.0669V31.1216C79.1758 31.1802 78.8477 31.2563 78.5859 31.3501C78.3281 31.4399 78.1152 31.5923 77.9473 31.8071C77.7832 32.022 77.7012 32.3208 77.7012 32.7036ZM82.6406 34.1743C82.582 34.1743 82.5332 34.1489 82.4941 34.0981C82.4551 34.0435 82.4355 33.9888 82.4355 33.9341C82.4355 33.8677 82.4492 33.8169 82.4766 33.7817C82.5078 33.7427 82.5586 33.7212 82.6289 33.7173C82.8125 33.7017 82.9707 33.6685 83.1035 33.6177C83.2402 33.563 83.3086 33.4849 83.3086 33.3833L83.3145 26.3696C83.3145 26.1899 83.2773 26.0532 83.2031 25.9595C83.1289 25.8618 83.041 25.7974 82.9395 25.7661C82.8379 25.731 82.7109 25.7036 82.5586 25.6841C82.4336 25.6646 82.3613 25.6528 82.3418 25.6489C82.2949 25.6294 82.2598 25.6021 82.2363 25.5669C82.2129 25.5317 82.2012 25.481 82.2012 25.4146C82.2012 25.3599 82.2129 25.3052 82.2363 25.2505C82.2637 25.1919 82.2988 25.1606 82.3418 25.1567C83.123 25.1099 83.9062 25.0864 84.6914 25.0864C84.7344 25.0864 84.7734 25.106 84.8086 25.145C84.8438 25.1802 84.8633 25.2388 84.8672 25.3208V33.1899C84.8672 33.3345 84.9023 33.4438 84.9727 33.5181C85.0469 33.5923 85.1309 33.6411 85.2246 33.6646C85.3184 33.6841 85.4375 33.7017 85.582 33.7173C85.668 33.7251 85.7246 33.7427 85.752 33.77C85.7793 33.7974 85.793 33.8501 85.793 33.9282C85.793 33.9868 85.7734 34.0435 85.7344 34.0981C85.6992 34.1489 85.6504 34.1743 85.5879 34.1743H82.6406ZM89.7188 33.8755C89.7188 33.8091 89.7324 33.7583 89.7598 33.7231C89.7871 33.688 89.8379 33.6665 89.9121 33.6587C90.1465 33.6392 90.3477 33.6021 90.5156 33.5474C90.6836 33.4888 90.7676 33.4009 90.7676 33.2837V26.9438C90.7676 26.7915 90.7227 26.6763 90.6328 26.5981C90.543 26.52 90.4434 26.4692 90.334 26.4458C90.2285 26.4224 90.0762 26.3989 89.877 26.3755C89.791 26.3677 89.7344 26.3521 89.707 26.3286C89.6797 26.3013 89.666 26.2446 89.666 26.1587C89.666 26.1001 89.6836 26.0356 89.7188 25.9653C89.7578 25.895 89.8066 25.8599 89.8652 25.8599H96.3105L96.5156 27.7642C96.5195 27.8228 96.4922 27.8716 96.4336 27.9106C96.375 27.9458 96.3184 27.9634 96.2637 27.9634C96.0605 27.9634 95.9238 27.8989 95.8535 27.77L95.6191 27.3071C95.5059 27.0728 95.4121 26.9009 95.3379 26.7915C95.2676 26.6821 95.1816 26.5962 95.0801 26.5337C94.9785 26.4712 94.8457 26.4399 94.6816 26.4399H92.4902V29.6157H93.9902C94.084 29.604 94.1738 29.5356 94.2598 29.4106C94.3457 29.2856 94.418 29.145 94.4766 28.9888C94.5352 28.8286 94.5703 28.7036 94.582 28.6138C94.5977 28.4888 94.6875 28.4263 94.8516 28.4263C94.9102 28.4263 94.9746 28.4458 95.0449 28.4849C95.1152 28.52 95.1504 28.5669 95.1504 28.6255V31.2212C95.1504 31.2798 95.1152 31.3286 95.0449 31.3677C94.9746 31.4028 94.9102 31.4204 94.8516 31.4204C94.7773 31.4204 94.7129 31.4067 94.6582 31.3794C94.6035 31.3481 94.5723 31.2974 94.5645 31.2271C94.5566 31.1294 94.5234 30.9966 94.4648 30.8286C94.4062 30.6567 94.332 30.5063 94.2422 30.3774C94.1523 30.2446 94.0566 30.1782 93.9551 30.1782H92.4902V33.02C92.4902 33.3638 92.668 33.5513 93.0234 33.5825H94.7051C94.9434 33.5825 95.1523 33.5317 95.332 33.4302C95.5156 33.3247 95.6836 33.1567 95.8359 32.9263C95.9883 32.6958 96.1406 32.3833 96.293 31.9888C96.3164 31.9224 96.3691 31.8735 96.4512 31.8423C96.5332 31.811 96.6133 31.7954 96.6914 31.7954C96.7734 31.7954 96.8477 31.813 96.9141 31.8481C96.9844 31.8833 97.0234 31.9321 97.0312 31.9946L96.7734 34.1743H89.918C89.8594 34.1743 89.8105 34.1392 89.7715 34.0688C89.7363 33.9985 89.7188 33.9341 89.7188 33.8755ZM98.0449 32.7563C98.0449 32.272 98.2227 31.8872 98.5781 31.6021C98.9336 31.313 99.3691 31.104 99.8848 30.9751C100.4 30.8423 100.988 30.7407 101.648 30.6704V29.7212C101.648 29.4048 101.566 29.1685 101.402 29.0122C101.238 28.856 100.992 28.7778 100.664 28.7778C100.363 28.7778 100.15 28.811 100.025 28.8774L99.1699 30.395C98.9082 30.395 98.6953 30.3267 98.5312 30.1899C98.3711 30.0532 98.291 29.8618 98.291 29.6157C98.291 29.3306 98.4219 29.0845 98.6836 28.8774C98.9492 28.6665 99.2852 28.5063 99.6914 28.397C100.098 28.2876 100.506 28.2329 100.916 28.2329C101.752 28.2329 102.357 28.3931 102.732 28.7134C103.111 29.0298 103.301 29.4438 103.301 29.9556V33.0083C103.301 33.1646 103.322 33.2993 103.365 33.4126C103.408 33.522 103.461 33.5767 103.523 33.5767C103.574 33.5767 103.672 33.563 103.816 33.5356C103.902 33.52 103.949 33.5122 103.957 33.5122C104.016 33.5122 104.061 33.5454 104.092 33.6118C104.123 33.6743 104.139 33.7427 104.139 33.8169C104.139 33.8638 104.127 33.897 104.104 33.9165C103.986 33.9985 103.787 34.0845 103.506 34.1743C103.229 34.2642 102.924 34.3091 102.592 34.3091C102.256 34.3091 102.033 34.2388 101.924 34.0981C101.814 33.9575 101.76 33.7759 101.76 33.5532V33.5239C101.26 34.0474 100.592 34.3091 99.7559 34.3091C99.4941 34.3091 99.2324 34.2544 98.9707 34.145C98.709 34.0356 98.4883 33.8657 98.3086 33.6353C98.1328 33.4009 98.0449 33.1079 98.0449 32.7563ZM99.7793 32.7036C99.7793 32.9302 99.8496 33.1255 99.9902 33.2896C100.131 33.4497 100.324 33.5298 100.57 33.5298C100.816 33.5298 101.029 33.4849 101.209 33.395C101.389 33.3013 101.535 33.1919 101.648 33.0669V31.1216C101.254 31.1802 100.926 31.2563 100.664 31.3501C100.406 31.4399 100.193 31.5923 100.025 31.8071C99.8613 32.022 99.7793 32.3208 99.7793 32.7036ZM107.145 34.3442C106.867 34.3442 106.627 34.3149 106.424 34.2563C106.225 34.1978 106.02 34.1255 105.809 34.0396C105.715 34.0005 105.635 33.981 105.568 33.981C105.51 33.981 105.463 33.9907 105.428 34.0103C105.396 34.0259 105.365 34.0493 105.334 34.0806C105.299 34.1118 105.264 34.1372 105.229 34.1567C105.193 34.1724 105.145 34.1802 105.082 34.1802C105.004 34.1802 104.938 34.1626 104.883 34.1274C104.832 34.0923 104.807 34.0474 104.807 33.9927C104.807 33.8755 104.803 33.7446 104.795 33.6001C104.787 33.4556 104.781 33.3169 104.777 33.1841C104.754 32.7075 104.742 32.4067 104.742 32.2817C104.742 32.1958 104.768 32.1333 104.818 32.0942C104.873 32.0513 104.938 32.0298 105.012 32.0298C105.074 32.0298 105.127 32.0415 105.17 32.0649C105.217 32.0884 105.246 32.1196 105.258 32.1587C105.293 32.2876 105.33 32.4087 105.369 32.522C105.412 32.6353 105.482 32.7896 105.58 32.9849C105.697 33.2153 105.887 33.4165 106.148 33.5884C106.414 33.7603 106.721 33.8462 107.068 33.8462C107.404 33.8462 107.672 33.7837 107.871 33.6587C108.074 33.5337 108.176 33.354 108.176 33.1196C108.176 32.9282 108.117 32.7642 108 32.6274C107.883 32.4868 107.709 32.3579 107.479 32.2407C107.248 32.1196 106.924 31.979 106.506 31.8188C106.037 31.6274 105.652 31.3872 105.352 31.0981C105.055 30.8091 104.906 30.4321 104.906 29.9673C104.906 29.6353 105.012 29.3364 105.223 29.0708C105.434 28.8052 105.715 28.6001 106.066 28.4556C106.418 28.3071 106.799 28.2329 107.209 28.2329C107.428 28.2329 107.621 28.2544 107.789 28.2974C107.957 28.3364 108.127 28.3872 108.299 28.4497C108.428 28.4966 108.512 28.52 108.551 28.52C108.609 28.52 108.648 28.5103 108.668 28.4907C108.691 28.4673 108.709 28.4399 108.721 28.4087C108.732 28.3735 108.744 28.3462 108.756 28.3267C108.779 28.2876 108.814 28.2583 108.861 28.2388C108.908 28.2153 108.959 28.2036 109.014 28.2036C109.092 28.2036 109.158 28.2231 109.213 28.2622C109.271 28.2974 109.301 28.3462 109.301 28.4087C109.301 28.4556 109.299 28.5005 109.295 28.5435C109.287 28.7466 109.283 28.9634 109.283 29.1938C109.283 29.229 109.289 29.3696 109.301 29.6157C109.309 29.7407 109.312 29.8228 109.312 29.8618C109.312 29.9595 109.287 30.0317 109.236 30.0786C109.189 30.1255 109.127 30.1489 109.049 30.1489C108.994 30.1489 108.945 30.1392 108.902 30.1196C108.859 30.0962 108.832 30.0688 108.82 30.0376C108.734 29.8032 108.639 29.5962 108.533 29.4165C108.432 29.2368 108.275 29.0786 108.064 28.9419C107.857 28.8052 107.592 28.7368 107.268 28.7368C107.01 28.7368 106.793 28.7935 106.617 28.9067C106.445 29.02 106.359 29.1938 106.359 29.4282C106.359 29.6782 106.467 29.8892 106.682 30.061C106.9 30.229 107.242 30.3989 107.707 30.5708C108.113 30.7231 108.461 30.8813 108.75 31.0454C109.039 31.2095 109.273 31.4146 109.453 31.6606C109.637 31.9067 109.729 32.1978 109.729 32.5337C109.729 33.1079 109.504 33.5532 109.055 33.8696C108.609 34.186 107.973 34.3442 107.145 34.3442ZM111.65 36.8052C111.463 36.8052 111.277 36.7642 111.094 36.6821C110.914 36.604 110.766 36.4946 110.648 36.354C110.535 36.2173 110.479 36.0669 110.479 35.9028C110.479 35.6802 110.537 35.5044 110.654 35.3755C110.775 35.2466 110.92 35.1821 111.088 35.1821L111.768 35.9146C111.947 35.9106 112.107 35.856 112.248 35.7505C112.393 35.645 112.533 35.4849 112.67 35.27C112.807 35.0552 112.965 34.7583 113.145 34.3794L110.877 29.3169C110.783 29.1294 110.682 29.0024 110.572 28.936C110.463 28.8657 110.326 28.8228 110.162 28.8071C110.076 28.7993 110.02 28.7837 109.992 28.7603C109.965 28.7329 109.951 28.6763 109.951 28.5903C109.951 28.5356 109.969 28.4829 110.004 28.4321C110.039 28.3774 110.086 28.3501 110.145 28.3501H113.168C113.23 28.3501 113.279 28.3774 113.314 28.4321C113.35 28.4829 113.367 28.5356 113.367 28.5903C113.367 28.6567 113.354 28.7075 113.326 28.7427C113.299 28.7778 113.248 28.7993 113.174 28.8071C112.975 28.8306 112.818 28.8599 112.705 28.895C112.596 28.9263 112.541 28.9888 112.541 29.0825L113.924 32.686L115.16 29.0825C115.16 28.9888 115.1 28.9263 114.979 28.895C114.861 28.8599 114.699 28.8306 114.492 28.8071C114.418 28.7993 114.367 28.7778 114.34 28.7427C114.312 28.7075 114.299 28.6567 114.299 28.5903C114.299 28.5356 114.316 28.4829 114.352 28.4321C114.387 28.3774 114.436 28.3501 114.498 28.3501H116.537C116.596 28.3501 116.643 28.3774 116.678 28.4321C116.717 28.4868 116.736 28.5396 116.736 28.5903C116.736 28.6763 116.723 28.7329 116.695 28.7603C116.668 28.7837 116.611 28.7993 116.525 28.8071C116.369 28.8228 116.244 28.8638 116.15 28.9302C116.057 28.9966 115.963 29.1255 115.869 29.3169L114.188 33.5825C114.148 33.6802 114.123 33.7407 114.111 33.7642C113.842 34.436 113.605 34.9731 113.402 35.3755C113.203 35.7778 112.957 36.1157 112.664 36.3892C112.375 36.6665 112.037 36.8052 111.65 36.8052Z" fill="#212529"/>
<path d="M0.5 17.1743C0.5 8.89005 7.21573 2.17432 15.5 2.17432H42.5V29.1743C42.5 37.4586 35.7843 44.1743 27.5 44.1743H0.5V17.1743Z" fill="#0011FF"/>
<path d="M15.1093 23.159V34.7532H13.73V20.0726L29.9282 35.9126H33.0402L33.5 9.82568H25.3548V21.13L27.523 23.159V11.2543H31.6609V34.7532H30.2331L12.3507 16.9862V36.3865L16.8176 36.4923V25.188L15.1093 23.159Z" stroke="white" stroke-width="0.5"/>
<path d="M9.5 36.2025H10.9713V34.1819V31.9774V13.8998L29.9282 32.4344L29.6233 30.4054L9.5 10.6952V32.4344V36.2025Z" stroke="white" stroke-width="0.5"/>
<path d="M12.2441 9.82568H10.1098L30.2816 29.3319V12.577H28.9023V26.2454L12.2441 9.82568Z" stroke="white" stroke-width="0.5"/>
<path d="M36.5942 5.50812L36.7664 1.73047L32.9887 1.5583L32.8165 5.33595L36.5942 5.50812Z" fill="white"/>
<path d="M39.9592 9.19537L40.1313 5.41772L36.3537 5.24556L36.1815 9.0232L39.9592 9.19537Z" fill="white"/>
<path d="M43.3249 12.8817L43.4971 9.104L39.7194 8.93183L39.5473 12.7095L43.3249 12.8817Z" fill="white"/>
<path d="M40.1199 5.66876L40.2921 1.89111L36.5145 1.71894L36.3423 5.49659L40.1199 5.66876Z" fill="#0011FF"/>
<path d="M43.6463 5.82941L43.8185 2.05176L40.0408 1.87959L39.8687 5.65724L43.6463 5.82941Z" fill="white"/>
<path d="M43.3591 9.3504L43.5312 5.57275L39.7536 5.40058L39.5814 9.17823L43.3591 9.3504Z" fill="#0011FF"/>
<path d="M44.0251 5.11261L44.1973 1.33496L40.6715 1.17427L40.4993 4.95192L44.0251 5.11261Z" fill="#0011FF"/>
</svg>
