<svg width="45" height="40" viewBox="0 0 45 40" fill="none" xmlns="http://www.w3.org/2000/svg">
<g opacity="0.6">
<rect x="0.5" y="0.5" width="44" height="39" rx="3.5" stroke="#5C5B5B"/>
<mask id="path-2-inside-1_1728_9323" fill="white">
<path d="M26.5446 21C27.2943 21 27.9541 20.59 28.2939 19.97L31.8726 13.48C32.2425 12.82 31.7627 12 31.0029 12H16.2084L15.2688 10H12V12H13.9993L17.5979 19.59L16.2484 22.03C15.5187 23.37 16.4783 25 17.9978 25H29.9933V23H17.9978L19.0974 21H26.5446ZM17.1581 14H29.3036L26.5446 19H19.5272L17.1581 14ZM17.9978 26C16.8982 26 16.0085 26.9 16.0085 28C16.0085 29.1 16.8982 30 17.9978 30C19.0974 30 19.997 29.1 19.997 28C19.997 26.9 19.0974 26 17.9978 26ZM27.9941 26C26.8945 26 26.0048 26.9 26.0048 28C26.0048 29.1 26.8945 30 27.9941 30C29.0937 30 29.9933 29.1 29.9933 28C29.9933 26.9 29.0937 26 27.9941 26Z"/>
</mask>
<path d="M26.5446 21C27.2943 21 27.9541 20.59 28.2939 19.97L31.8726 13.48C32.2425 12.82 31.7627 12 31.0029 12H16.2084L15.2688 10H12V12H13.9993L17.5979 19.59L16.2484 22.03C15.5187 23.37 16.4783 25 17.9978 25H29.9933V23H17.9978L19.0974 21H26.5446ZM17.1581 14H29.3036L26.5446 19H19.5272L17.1581 14ZM17.9978 26C16.8982 26 16.0085 26.9 16.0085 28C16.0085 29.1 16.8982 30 17.9978 30C19.0974 30 19.997 29.1 19.997 28C19.997 26.9 19.0974 26 17.9978 26ZM27.9941 26C26.8945 26 26.0048 26.9 26.0048 28C26.0048 29.1 26.8945 30 27.9941 30C29.0937 30 29.9933 29.1 29.9933 28C29.9933 26.9 29.0937 26 27.9941 26Z" fill="#5C5B5B"/>
<path d="M28.2939 19.97L24.7912 18.0385L24.7864 18.0472L28.2939 19.97ZM31.8726 13.48L28.3832 11.5245L28.3765 11.5365L28.3698 11.5485L31.8726 13.48ZM16.2084 12L12.5881 13.7009L13.6683 16H16.2084V12ZM15.2688 10L18.8891 8.29907L17.809 6H15.2688V10ZM12 10V6H8V10H12ZM12 12H8V16H12V12ZM13.9993 12L17.6136 10.2863L16.5296 8H13.9993V12ZM17.5979 19.59L21.0982 21.5259L22.0913 19.7304L21.2122 17.8763L17.5979 19.59ZM16.2484 22.03L12.7481 20.0941L12.7418 20.1055L12.7355 20.117L16.2484 22.03ZM29.9933 25V29H33.9933V25H29.9933ZM29.9933 23H33.9933V19H29.9933V23ZM17.9978 23L14.4926 21.0729L11.2339 27H17.9978V23ZM19.0974 21V17H16.7319L15.5922 19.0729L19.0974 21ZM17.1581 14V10H10.8365L13.5433 15.7128L17.1581 14ZM29.3036 14L32.8058 15.9325L36.0793 10H29.3036V14ZM26.5446 19V23H28.906L30.0468 20.9325L26.5446 19ZM19.5272 19L15.9124 20.7128L16.9962 23H19.5272V19ZM26.5446 25C28.7803 25 30.7716 23.7715 31.8015 21.8928L24.7864 18.0472C25.1365 17.4085 25.8084 17 26.5446 17V25ZM31.7967 21.9015L35.3754 15.4115L28.3698 11.5485L24.7912 18.0385L31.7967 21.9015ZM35.3621 15.4355C37.2293 12.1035 34.8127 8 31.0029 8V16C28.7126 16 27.2557 13.5365 28.3832 11.5245L35.3621 15.4355ZM31.0029 8H16.2084V16H31.0029V8ZM19.8288 10.2991L18.8891 8.29907L11.6484 11.7009L12.5881 13.7009L19.8288 10.2991ZM15.2688 6H12V14H15.2688V6ZM8 10V12H16V10H8ZM12 16H13.9993V8H12V16ZM10.3849 13.7137L13.9836 21.3037L21.2122 17.8763L17.6136 10.2863L10.3849 13.7137ZM14.0976 17.6541L12.7481 20.0941L19.7487 23.9659L21.0982 21.5259L14.0976 17.6541ZM12.7355 20.117C10.5735 24.0872 13.4033 29 17.9978 29V21C19.5534 21 20.4639 22.6528 19.7613 23.943L12.7355 20.117ZM17.9978 29H29.9933V21H17.9978V29ZM33.9933 25V23H25.9933V25H33.9933ZM29.9933 19H17.9978V27H29.9933V19ZM21.5029 24.9271L22.6025 22.9271L15.5922 19.0729L14.4926 21.0729L21.5029 24.9271ZM19.0974 25H26.5446V17H19.0974V25ZM17.1581 18H29.3036V10H17.1581V18ZM25.8014 12.0675L23.0424 17.0675L30.0468 20.9325L32.8058 15.9325L25.8014 12.0675ZM26.5446 15H19.5272V23H26.5446V15ZM23.142 17.2872L20.7728 12.2872L13.5433 15.7128L15.9124 20.7128L23.142 17.2872ZM17.9978 22C14.6616 22 12.0085 24.7184 12.0085 28H20.0085C20.0085 29.0816 19.1348 30 17.9978 30V22ZM12.0085 28C12.0085 31.2816 14.6616 34 17.9978 34V26C19.1348 26 20.0085 26.9184 20.0085 28H12.0085ZM17.9978 34C21.3079 34 23.997 31.3077 23.997 28H15.997C15.997 26.8923 16.8868 26 17.9978 26V34ZM23.997 28C23.997 24.6923 21.3079 22 17.9978 22V30C16.8868 30 15.997 29.1077 15.997 28H23.997ZM27.9941 22C24.6579 22 22.0048 24.7184 22.0048 28H30.0048C30.0048 29.0816 29.1311 30 27.9941 30V22ZM22.0048 28C22.0048 31.2816 24.6579 34 27.9941 34V26C29.1311 26 30.0048 26.9184 30.0048 28H22.0048ZM27.9941 34C31.3042 34 33.9933 31.3077 33.9933 28H25.9933C25.9933 26.8923 26.8831 26 27.9941 26V34ZM33.9933 28C33.9933 24.6923 31.3042 22 27.9941 22V30C26.8831 30 25.9933 29.1077 25.9933 28H33.9933Z" fill="#5C5B5B" mask="url(#path-2-inside-1_1728_9323)"/>
</g>
</svg>
