<svg width="21" height="32" viewBox="0 0 21 32" fill="none" xmlns="http://www.w3.org/2000/svg">
<path d="M1.13729 6.79187L1.13728 6.79186C0.269366 5.89641 0.290516 4.46688 1.1851 3.5975L4.15936 0.707035L19.7363 16.7355C20.6015 17.6259 20.5861 19.0462 19.7054 19.9175L19.7027 19.9202C19.6921 19.9307 19.6799 19.9428 19.6661 19.9569C19.5432 20.0824 18.7211 20.9208 17.9278 21.71C17.5305 22.1052 17.1435 22.4849 16.8559 22.7561C16.8228 22.7872 16.7914 22.8166 16.7618 22.8442C16.6573 22.733 16.5289 22.5978 16.3796 22.4413C15.9428 21.9834 15.3207 21.3381 14.5757 20.5686C13.0854 19.0294 11.1002 16.9904 9.11441 14.9546C5.151 10.8914 1.18338 6.83896 1.13851 6.79313C1.1385 6.79312 1.1385 6.79312 1.13849 6.79311C1.13813 6.79274 1.13771 6.7923 1.13729 6.79187Z" stroke="#000AFF"/>
<path d="M0.688076 17.3653L1.03982 17.0134C1.0401 17.0137 1.0405 17.0141 1.04088 17.0145C1.04088 17.0145 1.04089 17.0145 1.04089 17.0145C1.08006 17.0532 3.96659 19.9061 6.84806 22.7647C8.29135 24.1965 9.7338 25.6302 10.8166 26.7124C11.3579 27.2534 11.81 27.7073 12.1277 28.0295C12.1974 28.1001 12.2608 28.1647 12.3175 28.2227C12.519 28.0382 12.783 27.7875 13.0556 27.5252C13.6268 26.9756 14.2229 26.3875 14.3279 26.2837C14.3279 26.2837 14.3279 26.2837 14.3279 26.2837L0.688076 17.3653ZM0.688076 17.3653L1.03982 17.0134C0.469635 16.4435 0.483091 15.5405 1.07212 14.9866M0.688076 17.3653L1.07212 14.9866M1.07212 14.9866L3.14364 13.0385M1.07212 14.9866L3.14364 13.0385M3.14364 13.0385L14.3834 24.2303C14.9513 24.7957 14.9428 25.6906 14.3669 26.246L3.14364 13.0385Z" stroke="#0A12FC"/>
<path d="M7.02247 28.2162C7.02247 30.122 5.47754 31.6669 3.57178 31.6669C1.66602 31.6669 0.121094 30.122 0.121094 28.2162C0.121094 26.3105 3.57178 23.3853 3.57178 23.3853C3.57178 23.3853 7.02247 26.3105 7.02247 28.2162Z" fill="#FFB700"/>
</svg>
