<svg width="58" height="56" viewBox="0 0 58 56" fill="none" xmlns="http://www.w3.org/2000/svg">
<rect width="58" height="55.1" rx="6" fill="url(#paint0_linear_2742_77)"/>
<path d="M47.3383 28.602C47.3383 28.4201 47.3838 28.2381 47.3838 28.0562V27.1919V26.3276C47.3838 26.1457 47.3383 25.9637 47.3383 25.7817V25.5088C46.474 16.2768 38.6515 9 29.192 9C20.0051 9 12.3645 15.8673 11.182 24.7361V24.7816C11.1365 25.009 11.1365 25.2365 11.091 25.5094C11.091 25.6004 11.091 25.7368 11.0455 25.8278C11.0455 26.0098 11 26.1462 11 26.3282V27.1925V28.0567C11 28.2387 11 28.3751 11.0455 28.5571C11.0455 28.6481 11.0455 28.7845 11.091 28.8755C11.091 29.103 11.1365 29.3304 11.182 29.5578V29.6488C12.3643 38.5162 20.0049 45.384 29.192 45.384C38.6515 45.384 46.4744 38.1073 47.2932 28.8752C47.2932 28.7842 47.3383 28.693 47.3383 28.602ZM44.0184 34.6054C43.9729 34.7419 43.882 34.8784 43.8365 35.0148C43.791 35.1058 43.7 35.2423 43.6545 35.3332C43.5635 35.4697 43.5181 35.6062 43.4271 35.6971C43.3816 35.7881 43.2906 35.8791 43.2451 36.0156C43.1541 36.152 43.1087 36.243 43.0177 36.3795C42.9722 36.4704 42.8812 36.5614 42.8357 36.6524C42.7448 36.7888 42.6538 36.8798 42.5628 37.0163C42.4718 37.1073 42.4263 37.1982 42.3354 37.2892C42.2444 37.4257 42.1534 37.5166 42.0624 37.6531C41.9715 37.7441 41.926 37.8351 41.835 37.926C41.744 38.017 41.6531 38.1535 41.5621 38.2444C41.4711 38.3354 41.4256 38.4264 41.3346 38.5174C41.2437 38.6084 41.1527 38.7448 41.0162 38.8358L40.7888 39.0632C40.6978 39.1542 40.5613 39.2452 40.4704 39.3816C40.3794 39.4726 40.2884 39.5181 40.1974 39.6091C40.1065 39.7001 39.97 39.791 39.879 39.882C39.7881 39.973 39.6971 40.0185 39.6061 40.1094C39.4696 40.2004 39.3787 40.2914 39.2422 40.3824C39.1512 40.4733 39.0603 40.5188 38.9693 40.6098C38.8328 40.7008 38.7418 40.7918 38.6054 40.8827C38.5144 40.9282 38.4234 41.0192 38.3325 41.0647C38.196 41.1557 38.0595 41.2466 37.9685 41.2921C37.8776 41.3376 37.7866 41.4286 37.6956 41.4741C37.5592 41.5651 37.4227 41.6105 37.2862 41.7015C37.1953 41.747 37.1043 41.7925 36.9678 41.8835C36.8313 41.9744 36.6949 42.0199 36.5584 42.1109C36.4674 42.1564 36.3765 42.2019 36.24 42.2474C36.1035 42.2929 35.9671 42.3838 35.8306 42.4293C35.7396 42.4748 35.6486 42.5203 35.5122 42.5658C35.3757 42.6113 35.2393 42.7022 35.1028 42.7477C35.0118 42.7932 34.8753 42.8387 34.7844 42.8842C34.7389 42.8842 34.7389 42.8842 34.6934 42.9297C36.6945 40.9286 38.2863 37.8815 39.196 34.2431H44.2442C44.1987 34.2886 44.1987 34.3341 44.1532 34.4251C44.1546 34.3778 44.0639 34.5144 44.0184 34.6054ZM12.7286 29.284V29.1476C12.7286 28.9656 12.6831 28.8291 12.6831 28.6472C12.6831 28.5107 12.6831 28.4197 12.6376 28.2833V27.9194V27.1461V26.3728V26.0089C12.6376 25.8724 12.6376 25.7814 12.6831 25.645C12.6831 25.463 12.7286 25.2811 12.7286 25.1446V25.0536C12.865 23.9622 13.138 22.8705 13.5019 21.7792H18.8229C18.5045 23.462 18.368 25.2356 18.368 27.1003C18.368 28.9649 18.55 30.7386 18.8229 32.4213L13.5015 32.4224C13.1376 31.4671 12.865 30.3758 12.7286 29.284ZM19.9143 27.1923C19.9143 25.3276 20.0963 23.5539 20.4147 21.8712H28.3738V32.5133H20.4144C20.0963 30.8305 19.9143 29.0569 19.9143 27.1923ZM35.1494 11.6836C35.2859 11.7291 35.4224 11.7746 35.5588 11.8656C35.6498 11.9111 35.7863 11.9566 35.8773 12.0021C36.0137 12.0475 36.1502 12.1385 36.2867 12.184C36.3776 12.2295 36.5141 12.275 36.6051 12.3205C36.7415 12.366 36.878 12.4569 37.0145 12.5024C37.1054 12.5479 37.1964 12.5934 37.3329 12.6844C37.4693 12.7753 37.6058 12.8208 37.6968 12.9118C37.7878 12.9573 37.8787 13.0483 38.0152 13.0938C38.1517 13.1847 38.2426 13.2302 38.3791 13.3212C38.4701 13.3667 38.561 13.4577 38.652 13.5031C38.7885 13.5941 38.8795 13.6851 39.0159 13.7761C39.1069 13.8671 39.1979 13.9125 39.2888 14.0035C39.4253 14.0945 39.5163 14.1855 39.6528 14.2764C39.7437 14.3674 39.8347 14.4129 39.9257 14.5039C40.0167 14.5949 40.1531 14.6858 40.2441 14.7768C40.3351 14.8678 40.426 14.9133 40.517 15.0042C40.608 15.0952 40.7445 15.1862 40.8354 15.3227C40.9264 15.4136 41.0174 15.5046 41.1084 15.5501C41.1993 15.6411 41.2903 15.7775 41.4268 15.8685C41.5177 15.9595 41.6087 16.0505 41.6542 16.1414C41.7452 16.2324 41.8362 16.3689 41.9271 16.4598C42.0181 16.5508 42.0636 16.6418 42.1546 16.7328C42.2456 16.8238 42.3365 16.9602 42.4275 17.0512C42.5185 17.1422 42.564 17.2331 42.6549 17.3241C42.7459 17.4606 42.8369 17.5516 42.8824 17.688C42.9279 17.779 43.0188 17.87 43.0643 17.9609C43.1553 18.0974 43.2008 18.1884 43.2918 18.3248C43.3373 18.4158 43.4282 18.5068 43.4737 18.6433C43.5647 18.7797 43.6102 18.8707 43.7012 19.0072C43.7466 19.0981 43.8376 19.2346 43.8831 19.3256C43.9286 19.462 44.0196 19.5985 44.0651 19.6895C44.1105 19.7805 44.156 19.9169 44.247 20.0079C44.2925 20.0534 44.2925 20.0989 44.338 20.1898L39.2426 20.1881C38.3329 16.5497 36.7411 13.5027 34.74 11.5015C34.7855 11.5015 34.7855 11.5015 34.8309 11.547C34.9219 11.638 35.013 11.6836 35.1494 11.6836ZM38.4697 27.1923C38.4697 29.0569 38.2878 30.8306 37.9693 32.5133H30.0103V21.8712H37.9693C38.2877 23.554 38.4697 25.3276 38.4697 27.1923ZM37.6054 34.105C36.2412 39.3806 33.3758 43.2008 30.0103 43.7009V34.105H37.6054ZM30.0103 20.2791V10.6833C33.3757 11.1836 36.2411 15.0039 37.6054 20.2791H30.0103ZM28.373 10.6833V20.2791L20.7779 20.2787C22.1421 14.9577 25.0075 11.1834 28.373 10.6833ZM28.373 34.105V43.7009C25.0076 43.2005 22.1422 39.3802 20.7779 34.105H28.373ZM45.7466 27.9652C45.7466 28.1016 45.7466 28.1926 45.7012 28.3291C45.7012 28.42 45.7012 28.5565 45.6557 28.6475C45.6557 28.8294 45.6102 29.0114 45.6102 29.1933V29.2388C45.4737 30.3302 45.2008 31.4674 44.8369 32.5132H39.5613C39.8797 30.8305 40.0162 29.0568 40.0162 27.1922C40.0162 25.3275 39.8343 23.5538 39.5613 21.8711H44.8824C45.2463 22.9625 45.5192 24.0543 45.6557 25.1456V25.191C45.7012 25.373 45.7012 25.555 45.7012 25.7369C45.7012 25.8279 45.7012 25.9643 45.7467 26.0553C45.7467 26.1918 45.7467 26.2828 45.7921 26.4192V27.1925C45.7921 27.4647 45.7921 27.6922 45.7466 27.9652ZM23.6437 11.5466C21.6426 13.5477 20.0508 16.5948 19.1411 20.2331H14.1384C16.0031 16.2312 19.4137 13.0474 23.6437 11.5466ZM14.1381 34.1045H19.1863C20.096 37.7429 21.6878 40.7899 23.6889 42.791C19.4138 41.3358 16.0027 38.1523 14.1381 34.1045Z" fill="#0011FF"/>
<defs>
<linearGradient id="paint0_linear_2742_77" x1="0" y1="27.55" x2="57.9973" y2="27.9441" gradientUnits="userSpaceOnUse">
<stop stop-color="#D2D5FD"/>
<stop offset="0.221225" stop-color="#D8DAF8"/>
<stop offset="0.495717" stop-color="#EFE8E7"/>
<stop offset="1" stop-color="#FEF6E2"/>
</linearGradient>
</defs>
</svg>
