<svg width="22" height="22" viewBox="0 0 22 22" fill="none" xmlns="http://www.w3.org/2000/svg">
<circle cx="11" cy="11" r="11" fill="white"/>
<circle cx="11" cy="11" r="10.5" stroke="black" stroke-opacity="0.5"/>
<path d="M14.5286 7.47656C14.4767 7.42463 14.4152 7.38343 14.3474 7.35532C14.2796 7.32721 14.207 7.31274 14.1336 7.31274C14.0603 7.31274 13.9876 7.32721 13.9198 7.35532C13.8521 7.38343 13.7905 7.42463 13.7387 7.47656L10.9994 10.2103L8.26009 7.47096C8.20822 7.4191 8.14665 7.37796 8.07889 7.34989C8.01113 7.32182 7.9385 7.30737 7.86516 7.30737C7.79181 7.30737 7.71918 7.32182 7.65142 7.34989C7.58366 7.37796 7.52209 7.4191 7.47023 7.47096C7.41836 7.52282 7.37722 7.58439 7.34915 7.65215C7.32109 7.71992 7.30664 7.79254 7.30664 7.86589C7.30664 7.93923 7.32109 8.01186 7.34915 8.07962C7.37722 8.14739 7.41836 8.20896 7.47023 8.26082L10.2095 11.0001L7.47023 13.7394C7.41836 13.7913 7.37722 13.8529 7.34915 13.9206C7.32109 13.9884 7.30664 14.061 7.30664 14.1344C7.30664 14.2077 7.32109 14.2803 7.34915 14.3481C7.37722 14.4159 7.41836 14.4774 7.47023 14.5293C7.52209 14.5812 7.58366 14.6223 7.65142 14.6504C7.71918 14.6784 7.79181 14.6929 7.86516 14.6929C7.9385 14.6929 8.01113 14.6784 8.07889 14.6504C8.14665 14.6223 8.20822 14.5812 8.26009 14.5293L10.9994 11.79L13.7387 14.5293C13.7906 14.5812 13.8521 14.6223 13.9199 14.6504C13.9877 14.6784 14.0603 14.6929 14.1336 14.6929C14.207 14.6929 14.2796 14.6784 14.3474 14.6504C14.4151 14.6223 14.4767 14.5812 14.5286 14.5293C14.5804 14.4774 14.6216 14.4159 14.6496 14.3481C14.6777 14.2803 14.6921 14.2077 14.6921 14.1344C14.6921 14.061 14.6777 13.9884 14.6496 13.9206C14.6216 13.8529 14.5804 13.7913 14.5286 13.7394L11.7893 11.0001L14.5286 8.26082C14.7414 8.04795 14.7414 7.68943 14.5286 7.47656Z" fill="#444444" fill-opacity="0.62"/>
</svg>
