<svg width="30" height="32" viewBox="0 0 30 32" fill="none" xmlns="http://www.w3.org/2000/svg">
<path d="M6.94229 2.698C-9.48115 12.7741 13.3499 30.0979 13.3499 30.0979C13.3499 30.0979 17.9751 25.444 19.629 23.8393C19.629 23.8393 22.5545 20.3516 23.6575 18.2445C25.0722 15.5411 25.0571 13.8718 25.0571 13.7661" stroke="#0011FF" stroke-width="1.5"/>
<path d="M18.3487 7.7727L18.5178 7.66715L18.5219 7.65944C18.5227 7.659 18.5234 7.65856 18.5242 7.65811C18.6328 7.59396 18.79 7.50432 18.983 7.39608C19.2121 7.26761 19.4858 7.11621 19.7778 6.95586L18.6487 7.79878L18.6148 7.8241L18.5839 7.85306L19.0973 8.39978C18.5839 7.85306 18.5837 7.8533 18.5834 7.85357L18.5826 7.85435L18.5801 7.85665L18.5721 7.86427L18.5437 7.89144C18.5195 7.91478 18.4847 7.94852 18.4407 7.99213C18.3525 8.07934 18.2269 8.20616 18.0726 8.36849C17.7642 8.69289 17.3401 9.16054 16.8723 9.73846C15.942 10.8877 14.8144 12.5027 14.0935 14.3152C13.3734 16.1259 13.0295 18.2123 13.7933 20.2364C14.4785 22.0523 16.0058 23.6888 18.6537 25.0008C18.5735 25.0805 18.4886 25.1649 18.3996 25.2535C17.8081 25.8426 17.0334 26.6189 16.2637 27.3917C15.4938 28.1647 14.7284 28.9347 14.1556 29.5114L13.7117 29.9585C13.6989 29.946 13.6859 29.9333 13.6728 29.9203C13.3284 29.5813 12.8536 29.0816 12.3395 28.4459C11.3067 27.1689 10.1394 25.3727 9.53172 23.2515C8.92838 21.1454 8.87413 18.7153 10.0633 16.1157C11.2585 13.503 13.7423 10.6482 18.3487 7.7727ZM26.3303 5.16609V4.11018L26.825 3.93066L26.3303 3.51747V2.55863L25.6714 2.96713L24.9504 2.36489L28.0295 2.6362L26.3303 5.16609Z" stroke="#FFB700" stroke-width="1.5"/>
<path d="M7.15802 16.661C7.15802 16.661 1.05003 10.1348 7.15802 2.54947C7.15802 2.52143 15.268 -2.22981 22.0835 5.04759C22.0835 4.90765 25.5332 8.91021 25.0223 14.1868C24.9311 14.2358 22.503 21.1364 14.3859 20.4862C14.3529 20.4862 18.6023 17.8652 19.9152 15.0706C20.8029 12.2826 20.6619 11.1592 19.1033 8.58931C18.7162 7.95115 15.3672 3.929 10.5179 6.11922C5.66867 8.30943 4.96914 13.6742 7.15936 16.6621" stroke="#0009FF" stroke-width="1.5"/>
</svg>
