<svg width="30" height="30" viewBox="0 0 30 30" fill="none" xmlns="http://www.w3.org/2000/svg">
<g clip-path="url(#clip0_2414_12632)">
<path d="M8.96856 5.35303C8.95762 5.35312 8.94668 5.35351 8.93575 5.3542L8.46817 5.37412C8.46074 5.37476 8.45331 5.37555 8.44591 5.37646C7.04873 5.49045 5.76418 6.07918 4.76974 6.86006L4.76739 6.86123C3.79198 7.63437 3.0456 8.55121 2.45763 9.49209C1.8649 10.4327 1.41573 11.4116 1.05606 12.3983C1.05566 12.4003 1.05527 12.4022 1.05489 12.4042C0.354112 14.3835 -0.0234401 16.4391 -0.0302631 18.5647C-0.0302769 18.5671 -0.0302769 18.5694 -0.0302631 18.5718C-0.020874 19.6816 0.119896 20.8692 0.584971 22.0593C1.04516 23.2502 1.92131 24.5191 3.34356 25.2444H3.34474L3.34591 25.2456C4.05285 25.6085 4.8401 25.7905 5.60177 25.7952C6.46425 25.814 7.24801 25.5705 7.867 25.2714C7.86896 25.2706 7.87091 25.2698 7.87286 25.269C9.08594 24.668 9.92572 23.8608 10.6432 23.1011C10.6451 23.0991 10.6471 23.0972 10.649 23.0952C12.0802 21.54 13.129 19.8649 14.085 18.1944V18.1933C14.4159 17.6177 14.7021 17.027 15.0002 16.4401C15.2985 17.0273 15.5843 17.6186 15.9154 18.1944C16.8713 19.8642 17.9201 21.5399 19.3514 23.0952C19.3533 23.0972 19.3553 23.0991 19.3572 23.1011C20.0751 23.8613 20.9142 24.6686 22.1275 25.269C22.1295 25.2698 22.1314 25.2706 22.1334 25.2714C22.7527 25.5707 23.5368 25.8133 24.3986 25.7952C25.1603 25.7905 25.9476 25.6085 26.6545 25.2456L26.6568 25.2444C28.0779 24.5191 28.9538 23.252 29.4143 22.0616C29.8801 20.8707 30.0213 19.6823 30.0307 18.5718C30.0307 18.5694 30.0307 18.5671 30.0307 18.5647C30.0238 16.4395 29.6456 14.3833 28.9455 12.4042C28.9451 12.4026 28.9447 12.4011 28.9443 12.3995C28.5854 11.4128 28.1365 10.4331 27.544 9.49326C26.956 8.55239 26.2084 7.63554 25.233 6.8624L25.2307 6.86006C24.2362 6.07918 22.9517 5.49045 21.5545 5.37646C21.5475 5.37595 21.5404 5.37556 21.5334 5.37529L21.0658 5.3542C21.0545 5.35388 21.0432 5.35388 21.0318 5.3542C20.8724 5.35596 20.6747 5.35691 20.4623 5.3835C20.0706 5.42141 19.709 5.50716 19.3783 5.60732C19.3768 5.60771 19.3752 5.6081 19.3736 5.6085C18.6896 5.82167 18.1014 6.13482 17.5912 6.46982L17.5889 6.47217C16.5766 7.14662 15.7959 7.93641 15.115 8.71514C15.0724 8.76374 15.0406 8.80757 15.0002 8.85576C14.9601 8.80778 14.9287 8.76355 14.8865 8.71514L14.8854 8.71397C14.2043 7.93628 13.4249 7.14721 12.4127 6.47217C12.4115 6.47138 12.4104 6.4706 12.4092 6.46982C11.8986 6.13499 11.3102 5.82168 10.6268 5.6085C10.6252 5.6081 10.6236 5.60771 10.6221 5.60732C10.291 5.50723 9.92935 5.42023 9.5381 5.38232C9.32618 5.3559 9.12765 5.35478 8.96856 5.35303ZM8.97208 6.5542C9.12949 6.55606 9.28561 6.55858 9.3963 6.57295C9.40332 6.57385 9.41035 6.57464 9.41739 6.57529C9.7048 6.60257 9.98799 6.66974 10.2729 6.75576H10.2752C10.824 6.92776 11.3077 7.1825 11.7506 7.47295C12.6386 8.06579 13.3366 8.76692 13.983 9.50498C14.1635 9.71215 14.3355 9.93775 14.5233 10.1741C14.5248 10.1761 14.5264 10.178 14.5279 10.18L14.5303 10.1823C14.5386 10.1924 14.5472 10.2021 14.5561 10.2116C15.4035 11.145 15.9797 12.148 16.4358 12.9081C16.4594 12.9484 16.4878 12.9857 16.5201 13.0194C17.1829 14.2355 17.9354 15.6006 18.6318 16.7272C18.6326 16.7288 18.6334 16.7304 18.6342 16.7319C19.5977 18.2599 20.6453 19.7656 21.8381 21.014L21.8404 21.0151C22.4843 21.6828 23.3818 22.2034 24.5311 22.2034C24.9361 22.2034 25.3466 22.1352 25.7217 21.9374C26.096 21.74 26.4213 21.3949 26.5889 20.9495C26.8662 20.2271 26.9718 19.4049 26.9686 18.5706V18.5671C26.9523 16.8476 26.6153 15.0825 26.0229 13.4589L26.0217 13.4565C25.4375 11.8357 24.5573 10.2784 23.3252 9.30576C23.3236 9.30458 23.3221 9.30341 23.3205 9.30225C22.7024 8.82491 22.0175 8.52818 21.299 8.46201C21.2897 8.4614 21.2803 8.46101 21.2709 8.46084L21.0447 8.45029C21.0287 8.44965 21.0127 8.44965 20.9967 8.45029C20.9627 8.45149 20.8826 8.45185 20.7811 8.46318C20.5932 8.47647 20.435 8.51568 20.2971 8.55342C20.2939 8.55456 20.2908 8.55574 20.2877 8.55693C19.9446 8.65671 19.6072 8.82372 19.2729 9.0374H19.2717C18.6018 9.46672 17.9773 10.0626 17.3967 10.7144C17.1746 10.9628 16.9947 11.1805 16.8201 11.3706C16.5156 10.8789 16.2027 10.3985 15.7479 9.83896C15.8367 9.72786 15.9273 9.60891 16.0174 9.50615L16.0186 9.50498C16.6649 8.76571 17.3636 8.06453 18.2533 7.47178C18.696 7.18138 19.1796 6.92623 19.7299 6.75459H19.7311C20.0143 6.66902 20.297 6.60367 20.5842 6.57647C20.5912 6.57581 20.5983 6.57503 20.6053 6.57412C20.7193 6.5593 20.8789 6.55602 21.0412 6.5542H21.0447L21.4572 6.57295H21.4584C22.5757 6.66437 23.6621 7.15559 24.4889 7.80459H24.49C25.3361 8.47582 25.9957 9.27978 26.5268 10.1296L26.5279 10.1308C27.0663 10.9842 27.4791 11.8843 27.8158 12.8097C28.472 14.6666 28.8235 16.5798 28.8307 18.5612V18.5647C28.8307 18.5659 28.8307 18.5671 28.8307 18.5683C28.8215 19.583 28.6935 20.6121 28.2975 21.6245L28.2963 21.6269C27.918 22.6059 27.2026 23.6197 26.1096 24.1769H26.1084C25.5799 24.4486 24.9612 24.5933 24.3893 24.5964C24.3857 24.5964 24.3822 24.5964 24.3787 24.5964C23.7619 24.6104 23.1448 24.427 22.6561 24.1909H22.6549C21.6309 23.6831 20.9206 23.0087 20.235 22.2831L20.2338 22.2819C18.8963 20.8282 17.8969 19.2383 16.9572 17.5968L16.9561 17.5956C16.451 16.7174 15.9869 15.8091 15.5451 14.8933C15.5437 14.8904 15.5418 14.8879 15.5404 14.8851C15.5329 14.8691 15.5247 14.8534 15.5158 14.8382C15.5148 14.8365 15.5133 14.8341 15.5123 14.8323C15.5104 14.8292 15.5084 14.8261 15.5065 14.8229C15.0793 14.1059 14.5104 13.1326 13.9502 12.4159C13.9357 12.3869 13.9188 12.359 13.8998 12.3327C13.8953 12.3266 13.8903 12.3212 13.8858 12.3151C13.4705 11.7596 13.054 11.218 12.6037 10.7144C12.0231 10.0626 11.3986 9.46672 10.7287 9.0374H10.7275C10.3932 8.82372 10.0558 8.65671 9.7127 8.55693C9.71076 8.55614 9.7088 8.55536 9.70685 8.55459C9.56559 8.51514 9.40435 8.47498 9.217 8.46201C9.11741 8.45113 9.03729 8.45149 9.00372 8.45029C8.98771 8.44965 8.97168 8.44965 8.95567 8.45029L8.7295 8.46084C8.72012 8.46101 8.71074 8.4614 8.70138 8.46201C7.98296 8.52818 7.29772 8.82459 6.67989 9.30225C6.67832 9.30341 6.67676 9.30458 6.67521 9.30576C5.44222 10.2784 4.56179 11.8372 3.97755 13.4589C3.38507 15.0825 3.04815 16.8476 3.03185 18.5671V18.5706C3.02928 19.405 3.13483 20.2283 3.41271 20.9507V20.953C3.68905 21.6874 4.13075 22.2563 4.70528 22.5573H4.70646L4.70763 22.5585C4.98274 22.7029 5.30387 22.7848 5.64161 22.7917C5.9462 22.8093 6.25823 22.7378 6.58849 22.5925L6.59083 22.5901C7.27339 22.2855 7.92814 21.7302 8.52911 21.1077L8.53146 21.1054C9.72348 19.8566 10.7713 18.3524 11.7354 16.8245C11.7365 16.823 11.7377 16.8214 11.7389 16.8198C12.3378 15.8507 12.8929 14.8485 13.4498 13.8433C13.746 14.2921 14.0362 14.7207 14.3076 15.1769C13.9078 15.9951 13.4965 16.8095 13.0443 17.5956L13.0432 17.5968C12.1035 19.2388 11.1042 20.8282 9.76661 22.2819L9.76544 22.2831C9.07999 23.0085 8.36755 23.6835 7.342 24.1921C6.85327 24.4278 6.23815 24.6108 5.62286 24.5964C5.61896 24.5963 5.61505 24.5963 5.61114 24.5964C5.03922 24.5932 4.42054 24.4486 3.892 24.1769L3.89083 24.1757C2.79812 23.6192 2.08246 22.606 1.70411 21.6269L1.70294 21.6245C1.3069 20.6121 1.17886 19.583 1.16974 18.5683V18.5612C1.17692 16.5779 1.5271 14.6639 2.18458 12.8062L2.18575 12.8038C2.52272 11.8803 2.93634 10.9832 3.47364 10.1308L3.47481 10.1284C4.00645 9.27769 4.66531 8.47391 5.51271 7.80225C6.33943 7.15342 7.4261 6.66318 8.54317 6.57178H8.54435L8.97208 6.5542ZM8.99083 9.65029C9.03637 9.65149 9.07872 9.65264 9.07872 9.65264C9.09583 9.65494 9.11304 9.6565 9.13028 9.65732C9.17121 9.6596 9.26244 9.6771 9.37755 9.70889C9.57089 9.76511 9.82099 9.88202 10.0818 10.0487C10.6081 10.3862 11.1734 10.9118 11.7084 11.5124V11.5136C12.0414 11.886 12.3676 12.3147 12.6963 12.7476C12.0554 13.9209 11.4083 15.0704 10.7205 16.1835C9.77656 17.6796 8.76544 19.1232 7.66427 20.2769C7.12901 20.8308 6.52874 21.3034 6.1045 21.4933C5.88089 21.5916 5.76998 21.6018 5.70724 21.5976C5.69592 21.5968 5.68459 21.5965 5.67325 21.5964C5.50415 21.5944 5.39147 21.5626 5.26427 21.4956L5.2631 21.4944C5.03632 21.376 4.73045 21.0505 4.53419 20.5265C4.53381 20.5249 4.53341 20.5233 4.53302 20.5218C4.33065 19.9964 4.22998 19.3046 4.23185 18.5788V18.5765V18.5753C4.24716 17.0063 4.55949 15.3649 5.10606 13.8679L5.10724 13.8655C5.64095 12.3841 6.46818 11 7.417 10.2503C7.8871 9.88742 8.34364 9.70187 8.80919 9.6585L8.99083 9.65029ZM21.0096 9.65029L21.1912 9.6585C21.6559 9.70179 22.1121 9.88717 22.5822 10.2491C23.5318 10.9994 24.3593 12.3835 24.8932 13.8655L24.8943 13.8679C25.4413 15.366 25.7537 17.0087 25.7686 18.5788C25.771 19.3043 25.6711 19.9955 25.4686 20.5218C25.4678 20.5233 25.467 20.5249 25.4662 20.5265C25.3971 20.711 25.3088 20.798 25.1615 20.8757C25.0143 20.9533 24.7956 21.0034 24.5311 21.0034C23.7218 21.0034 23.1984 20.6938 22.7065 20.1843C21.6061 19.0327 20.5949 17.5909 19.6525 16.0968L19.649 16.0921C18.9629 14.9818 18.1983 13.5962 17.5326 12.3737C17.766 12.0962 17.9503 11.8958 18.292 11.5136V11.5124C18.827 10.9118 19.3923 10.3862 19.9186 10.0487L19.9197 10.0476C20.1795 9.88171 20.4289 9.7663 20.6217 9.71006L20.6229 9.70889C20.7395 9.67751 20.8325 9.65941 20.8701 9.65732C20.8874 9.6565 20.9046 9.65494 20.9217 9.65264C20.9217 9.65264 20.964 9.65149 21.0096 9.65029Z" fill="#0011FF"/>
</g>
<defs>
<clipPath id="clip0_2414_12632">
<rect width="30" height="30" fill="white"/>
</clipPath>
</defs>
</svg>
