<svg width="30" height="30" viewBox="0 0 30 30" fill="none" xmlns="http://www.w3.org/2000/svg">
<path d="M17.6136 18.117C16.9819 18.1227 16.3705 17.8934 15.8984 17.4736L8.86655 11.1004C8.64934 10.9068 8.57449 10.5989 8.67887 10.327C8.78323 10.0553 9.04485 9.87658 9.33599 9.87818H25.8881C26.1781 9.87864 26.4381 10.0569 26.5427 10.3277C26.6474 10.5982 26.5748 10.9052 26.3603 11.1004L19.3256 17.4737C18.8543 17.8928 18.2442 18.122 17.6136 18.117ZM9.33606 10.5449L16.3556 16.9715C16.7065 17.2704 17.1523 17.4345 17.6133 17.4345C18.074 17.4345 18.5199 17.2704 18.8708 16.9715L25.9056 10.5953L20.2732 10.545L9.33606 10.5449Z" fill="#0011FF"/>
<path d="M8.61963 21.3893L14.2638 15.7451L14.744 16.2253L9.09982 21.8695L8.61963 21.3893Z" fill="#0011FF"/>
<path d="M20.374 16.1142L20.8542 15.634L26.7593 21.5391L26.2791 22.0193L20.374 16.1142Z" fill="#0011FF"/>
<path d="M26.1508 22.43H9.07663C8.80655 22.43 8.54746 22.3227 8.35657 22.1316C8.16546 21.9407 8.05834 21.6816 8.05834 21.4115V19.9709H6.5468C6.35934 19.9709 6.20736 19.8189 6.20736 19.6315C6.20736 19.444 6.35934 19.292 6.5468 19.292H8.39777C8.58454 19.2936 8.7356 19.4447 8.73721 19.6315V21.4028C8.73057 21.4966 8.76353 21.5886 8.82807 21.6571C8.89262 21.7255 8.98257 21.7639 9.07664 21.7628H26.1509C26.3385 21.7628 26.4905 21.6108 26.4905 21.4234V10.8964C26.4937 10.8044 26.4594 10.7149 26.3953 10.6488C26.3312 10.5824 26.2431 10.5451 26.1509 10.5451H9.07664C8.98646 10.5444 8.89949 10.5799 8.83585 10.6437C8.772 10.7076 8.73652 10.7943 8.73721 10.8847V12.8213C8.73721 13.0088 8.58523 13.1608 8.39777 13.1608H3.45598C3.36099 13.1695 3.26646 13.1379 3.19574 13.0736C3.12524 13.0092 3.08496 12.9181 3.08496 12.8227C3.08496 12.727 3.12524 12.6359 3.19574 12.5716C3.26646 12.5073 3.36099 12.4757 3.45598 12.4846H8.05834V10.8965C8.05834 10.6264 8.16546 10.3673 8.35657 10.1764C8.54746 9.98528 8.80655 9.87793 9.07663 9.87793H26.1508C26.4212 9.87793 26.68 9.98527 26.8711 10.1764C27.062 10.3673 27.1694 10.6264 27.1694 10.8965V21.4117C27.1694 21.6818 27.062 21.9409 26.8711 22.1317C26.68 22.3229 26.4212 22.43 26.1508 22.43Z" fill="#0011FF"/>
<path d="M9.87963 14.7489H6.3077C6.12024 14.7489 5.96826 14.597 5.96826 14.4095C5.96826 14.222 6.12024 14.0701 6.3077 14.0701H9.87963C10.0671 14.0701 10.2193 14.222 10.2193 14.4095C10.2193 14.597 10.0671 14.7489 9.87963 14.7489Z" fill="#FFB700"/>
<path d="M6.87471 16.3251H2.02449C1.83704 16.3251 1.68506 16.1731 1.68506 15.9854C1.68506 15.798 1.83704 15.646 2.02449 15.646H6.87471C7.06216 15.646 7.21414 15.798 7.21414 15.9854C7.21414 16.1731 7.06216 16.3251 6.87471 16.3251Z" fill="#FFB700"/>
<path d="M8.30025 17.9518H5.61385C5.42639 17.9518 5.27441 17.7998 5.27441 17.6124C5.27441 17.4249 5.42639 17.2729 5.61385 17.2729H8.30025C8.48771 17.2729 8.63969 17.4249 8.63969 17.6124C8.63969 17.7998 8.48771 17.9518 8.30025 17.9518Z" fill="#FFB700"/>
<circle cx="25.3844" cy="10.3847" r="4.11538" fill="white" stroke="#0011FF"/>
<path d="M23.3773 10.1318C23.4553 10.1911 23.5685 10.1748 23.6222 10.0987C23.6814 10.0207 23.6651 9.90755 23.5891 9.85386L22.8372 9.28876C22.8105 9.26716 22.8135 9.24101 22.815 9.22796C22.8165 9.21484 22.827 9.19221 22.8602 9.18008L27.976 7.99963C28.0057 7.99507 28.0228 8.00761 28.0344 8.02215C28.046 8.0367 28.0576 8.0513 28.0435 8.08152L26.005 12.9134C25.991 12.9436 25.9668 12.9462 25.9557 12.9502C25.9426 12.9487 25.9165 12.9458 25.9009 12.9201L25.3428 11.8392C25.3251 11.808 25.311 11.7693 25.2933 11.7382C25.0772 11.2155 25.2221 10.6172 25.6585 10.2508L26.5897 9.47165C26.6661 9.40612 26.6759 9.29595 26.6125 9.22515C26.547 9.14882 26.4368 9.13895 26.366 9.2024L25.4348 9.98153C24.8401 10.4809 24.6739 11.3126 25.0272 12.0047L25.5853 13.0856C25.6564 13.2289 25.806 13.3121 25.968 13.3093C26.0107 13.3063 26.0569 13.2956 26.0957 13.2814C26.2007 13.243 26.2841 13.1624 26.3332 13.0567L28.3717 8.22479C28.4329 8.08337 28.4094 7.9164 28.3091 7.79636C28.2088 7.67632 28.0528 7.62679 27.901 7.65721L22.7797 8.83966C22.6243 8.87766 22.5049 8.99654 22.4684 9.15402C22.4319 9.31152 22.496 9.46987 22.6255 9.56669L23.3773 10.1318Z" fill="#0011FF"/>
<path d="M23.0002 11.9308C23.0168 11.9248 23.0368 11.9112 23.0514 11.8995L23.9535 11.1436C24.0298 11.078 24.0397 10.9679 23.9763 10.8971C23.9107 10.8208 23.8006 10.8109 23.7297 10.8743L22.8277 11.6303C22.7514 11.6958 22.7415 11.806 22.8049 11.8768C22.8533 11.9406 22.9283 11.9571 23.0002 11.9308Z" fill="#0011FF"/>
<path d="M22.8994 13.0961C22.916 13.0901 22.9361 13.0764 22.9507 13.0648L24.4801 11.7787C24.5565 11.7132 24.5663 11.603 24.5029 11.5322C24.4373 11.4559 24.3272 11.446 24.2564 11.5095L22.7269 12.7956C22.6506 12.8611 22.6407 12.9713 22.7042 13.0421C22.7506 13.1004 22.8331 13.1204 22.8995 13.0961L22.8994 13.0961Z" fill="#0011FF"/>
</svg>
