<svg width="28" height="28" viewBox="0 0 28 28" fill="none" xmlns="http://www.w3.org/2000/svg">
<path d="M23.1765 14.6224V13.0081C23.1765 11.9039 22.2816 11.0086 21.1775 11.0081L18.0378 11.0065L16.4679 11.0058L15.683 11.0054M23.1765 14.6224C20.1165 17.5108 16.9046 20.531 16.9046 20.531H15.4523H15.0892M23.1765 14.6224C24.4655 13.4056 25.7356 12.2039 26.7453 11.2426M4.82353 14.5581V13.0182C4.82353 11.9132 5.71956 11.0004 6.82452 11.001L9.96423 11.0025L11.5341 11.0033L12.319 11.0037M4.82353 14.5581L4.45111 14.2162L1.25851 11.2409M4.82353 14.5581L11.3288 20.531H12.6644H12.9983M1 11L1.25851 11.2409M1.25851 11.2409C1.39691 11.028 1.56374 10.8654 1.67714 10.7797C4.96168 7.80271 12.4927 1.76532 12.5283 1.73752C13.7547 0.780818 14.8328 0.727874 15.9623 1.73748C19.2585 4.68283 26.2411 10.6874 26.2411 10.6983C26.5 11 26.6295 11.0381 26.7453 11.2426M1.25851 11.2409C1.11195 11.4664 0.997264 11.7484 1.01167 12.0556L1 25.3572C1.04281 25.8911 1.39928 26.967 2.48271 26.9996H14.7136H25.5056C25.9259 27.0131 26.8132 26.7199 27 25.4387V12.0963C26.9929 11.9056 26.9273 11.5638 26.7453 11.2426M26.7453 11.2426C26.8322 11.1599 26.6625 11.3216 26.7453 11.2426Z" stroke="#0011FF" stroke-linecap="round"/>
</svg>
