<svg width="28" height="24" viewBox="0 0 28 24" fill="none" xmlns="http://www.w3.org/2000/svg">
<path d="M14.1006 0.00353225C13.8689 -0.00185149 13.6365 0.00896383 13.4045 0.0375166C12.7857 0.113657 12.1722 0.312894 11.5998 0.643376C10.8427 1.08051 10.3204 1.72777 9.91348 2.43752L9.84434 2.39767L1.44434 16.7977L1.51348 16.8375C1.10062 17.5458 0.799805 18.3239 0.799805 19.2C0.799805 21.8439 2.95594 24 5.5998 24C7.36751 24 8.85316 22.9916 9.68613 21.5625L9.75527 21.6024L13.9998 14.3262L18.2443 21.6024C19.5669 23.8902 22.511 24.6781 24.7998 23.3567C27.0894 22.0347 27.8784 19.0896 26.5564 16.8V16.7988L18.1564 2.40002C17.2889 0.897456 15.7222 0.0412183 14.1006 0.00353225ZM14.0783 1.19767C15.293 1.22355 16.4623 1.86603 17.117 3.00002L17.1182 3.00119V3.00236L25.5182 17.4024C26.5139 19.1299 25.927 21.32 24.1998 22.3172C22.4718 23.3149 20.2803 22.728 19.2826 21L19.2814 20.9988L10.8826 6.60002V6.59885L10.8814 6.59767C9.88569 4.8701 10.4726 2.68005 12.1998 1.68283C12.6318 1.43341 13.0928 1.28287 13.5568 1.22463C13.7309 1.20279 13.9048 1.19398 14.0783 1.19767ZM9.32754 5.66486C9.42359 6.18919 9.56203 6.71308 9.84316 7.20002V7.20119L13.3049 13.1356L10.2369 18.3949C9.83924 16.1474 7.95847 14.4 5.5998 14.4C5.05056 14.4 4.54161 14.5429 4.04941 14.7141L9.32754 5.66486ZM5.5998 15.6C7.59514 15.6 9.19981 17.2047 9.19981 19.2C9.19981 21.1954 7.59514 22.8 5.5998 22.8C3.60447 22.8 1.9998 21.1954 1.9998 19.2C1.9998 17.2047 3.60447 15.6 5.5998 15.6Z" fill="#0011FF"/>
</svg>
