<svg width="30" height="30" viewBox="0 0 30 30" fill="none" xmlns="http://www.w3.org/2000/svg">
<path d="M24.9728 13.0859C24.9792 12.9615 24.9827 12.847 24.9827 12.7358C24.9827 8.98141 22.2727 5.92676 18.9416 5.92676C16.611 5.92676 14.5233 7.41324 13.5142 9.75139C12.9193 9.2185 12.1898 8.92937 11.4199 8.92937C9.55885 8.92937 8.04479 10.6346 8.0432 12.7316C7.52776 12.4775 6.97064 12.3447 6.40604 12.3447C4.14057 12.3447 2.29785 14.4213 2.29785 16.9735C2.29785 19.5152 4.23051 21.6625 6.51795 21.6625H11.7893C11.9523 21.6625 12.0846 21.5137 12.0846 21.3298C12.0846 21.1459 11.9523 20.9971 11.7893 20.9971H6.51748C4.55002 20.9971 2.88766 19.1544 2.88766 16.9733C2.88766 14.788 4.46582 13.0099 6.40557 13.0099C7.0501 13.0099 7.6825 13.2116 8.23504 13.5933C8.33369 13.662 8.45843 13.6586 8.55479 13.5853C8.65069 13.5121 8.69967 13.3829 8.68044 13.2539C8.65709 13.0991 8.63352 12.9163 8.63352 12.7349C8.63352 11.0032 9.88344 9.59413 11.4199 9.59413C12.1721 9.59413 12.8779 9.92867 13.4078 10.5366C13.4771 10.6165 13.5772 10.6514 13.6758 10.6297C13.7733 10.608 13.8543 10.5322 13.8919 10.4285C14.7312 8.09756 16.7133 6.59127 18.9417 6.59127C21.9472 6.59127 24.3923 9.34752 24.3923 12.735C24.3923 12.8972 24.3845 13.0703 24.3676 13.2792C24.3552 13.4322 24.4376 13.5751 24.5669 13.6246C25.9313 14.1461 26.8482 15.5864 26.8482 17.2088C26.8482 19.2973 25.3404 20.9968 23.4864 20.9968C23.3232 20.9968 23.1911 21.1456 23.1911 21.3295C23.1911 21.5134 23.3232 21.6623 23.4864 21.6623C25.6656 21.6623 27.4385 19.6646 27.4385 17.2088C27.4383 15.3891 26.4566 13.7631 24.9727 13.086L24.9728 13.0859Z" fill="#0011FF" stroke="#0011FF" stroke-width="0.5"/>
<path d="M23.3561 12.7214C23.5152 12.6811 23.6152 12.5034 23.5795 12.3241C23.2117 10.4742 22.1554 8.87893 20.6819 7.94783C20.5395 7.85755 20.36 7.91481 20.2802 8.07525C20.2001 8.23568 20.2509 8.43816 20.3932 8.52792C21.721 9.36697 22.6726 10.8034 23.0041 12.4694C23.0348 12.6241 23.1568 12.7291 23.292 12.7291C23.3124 12.7296 23.3344 12.727 23.3561 12.7214Z" fill="#0011FF" stroke="#0011FF" stroke-width="0.5"/>
<path d="M17.5819 13.9819C14.858 13.9819 12.7246 15.2043 12.7246 16.7648V24.2177C12.7246 25.7779 14.858 27 17.5819 27C20.3061 27 22.4395 25.7777 22.4395 24.2177V16.7648C22.4395 15.2043 20.3058 13.9819 17.5819 13.9819ZM21.8489 24.2174C21.8489 25.2395 20.1341 26.3344 17.5819 26.3344C15.0297 26.3344 13.3151 25.2395 13.3151 24.2174V23.0812C14.1316 23.9424 15.7182 24.515 17.5819 24.515C19.4457 24.515 21.0323 23.9424 21.8489 23.0812V24.2174ZM21.8489 21.733C21.8489 22.7549 20.1341 23.8493 17.5819 23.8493C15.0297 23.8493 13.3151 22.7549 13.3151 21.733V20.5968C14.1316 21.458 15.7182 22.0309 17.5819 22.0309C19.4457 22.0309 21.0323 21.458 21.8489 20.5968V21.733ZM21.8489 19.2488C21.8489 20.271 20.1341 21.3659 17.5819 21.3659C15.0297 21.3659 13.3151 20.271 13.3151 19.2488V18.1134C14.1316 18.9747 15.7182 19.5475 17.5819 19.5475C19.4457 19.5475 21.0323 18.9747 21.8489 18.1134V19.2488ZM17.5819 18.8818C15.0296 18.8818 13.3151 17.7868 13.3151 16.7647C13.3151 15.742 15.0297 14.6474 17.5819 14.6474C20.1341 14.6474 21.8489 15.7423 21.8489 16.7647C21.8489 17.7868 20.1344 18.8818 17.5819 18.8818Z" fill="#0011FF" stroke="#0011FF" stroke-width="0.5"/>
<path d="M16.2539 20.1404H16.8073V20.8058H16.2539V20.1404Z" fill="#FFB700"/>
<path d="M17.1396 20.1404H17.6931V20.8058H17.1396V20.1404Z" fill="#FFB700"/>
<path d="M18.0254 20.1404H18.5788V20.8058H18.0254V20.1404Z" fill="#FFB700"/>
<path d="M16.2539 22.4697H16.8073V23.1352H16.2539V22.4697Z" fill="#FFB700"/>
<path d="M17.1396 22.4697H17.6931V23.1352H17.1396V22.4697Z" fill="#FFB700"/>
<path d="M18.0254 22.4697H18.5788V23.1352H18.0254V22.4697Z" fill="#FFB700"/>
<path d="M16.2539 25.1313H16.8073V25.7968H16.2539V25.1313Z" fill="#FFB700"/>
<path d="M17.1396 25.1313H17.6931V25.7968H17.1396V25.1313Z" fill="#FFB700"/>
<path d="M18.0254 25.1313H18.5788V25.7968H18.0254V25.1313Z" fill="#FFB700"/>
</svg>
